<?xml version="1.0" encoding="UTF-8"?>
<svg xmlns="http://www.w3.org/2000/svg" viewBox="0 0 280 55">
  <defs>
    <linearGradient id="mGradient" x1="0%" y1="0%" x2="100%" y2="100%">
      <stop offset="0%" stop-color="#31BEEF"/>
      <stop offset="100%" stop-color="#994E95"/>
    </linearGradient>
    <style>
      .ray-purple {
        fill: rgb(121,76,122);
      }
      .ray-cyan {
        fill: rgb(57,168,190);
      }
      .ray-blue {
        fill: rgb(135,159,207);
      }
      .prism {
        fill: rgb(249,250,246);
      }
      .cls-2 {
        stroke: #fbfaf7;
        fill: none;
        stroke-miterlimit: 10;
        stroke-width: 1.5px;
      }
      .cls-3 {
        stroke: url(#mGradient);
        fill: none;
        stroke-miterlimit: 10;
        stroke-width: 1.5px;
      }
      .cls-4 {
        fill: #fbfaf7;
        font-family: EuphemiaUCAS, 'Euphemia UCAS', -apple-system, sans-serif;
        font-size: 10px;
      }
    </style>
  </defs>

  <!-- ============ PRISMA SYMBOL WITH RAYS ============ -->
  <g transform="translate(-8, -73) scale(0.2)">
    <!-- Purple ray -->
    <path class="ray-purple" d="M 473.49 581.06 C465.23,583.78 457.92,586.00 457.24,586.00 C454.34,586.00 456.39,583.72 461.25,581.53 C464.14,580.23 472.58,576.39 480.00,573.00 C498.85,564.38 531.05,550.00 531.50,550.00 C531.71,550.00 537.20,547.48 543.69,544.39 C550.19,541.31 559.78,536.76 565.00,534.28 C570.22,531.80 576.16,529.18 578.19,528.45 C580.22,527.72 583.82,526.06 586.19,524.75 C588.56,523.44 592.30,521.65 594.50,520.78 C596.70,519.90 608.17,514.60 620.00,509.00 C672.26,484.24 676.87,482.02 681.56,481.85 C682.02,481.84 682.49,481.84 683.00,481.85 L 683.25 481.85 C697.52,481.96 703.23,499.82 692.32,510.21 C689.19,513.19 685.90,514.53 669.50,519.50 C663.45,521.34 651.08,525.16 642.00,528.00 C614.21,536.69 581.57,546.76 559.00,553.60 C539.68,559.45 520.04,565.76 473.49,581.06 Z"/>

    <!-- Cyan ray -->
    <path class="ray-cyan" d="M 432.45 566.92 C431.52,565.41 435.83,561.12 447.81,551.65 C476.17,529.22 506.88,504.56 526.45,488.50 C536.51,480.25 547.38,471.39 550.62,468.82 C570.21,453.22 579.40,445.85 595.34,432.94 C605.15,425.00 615.78,416.48 618.96,414.00 C622.14,411.52 628.52,406.33 633.12,402.45 C637.73,398.57 645.15,392.63 649.62,389.26 C654.08,385.88 661.50,379.93 666.10,376.03 C670.76,372.09 676.05,368.53 678.02,367.99 C683.05,366.64 688.21,368.34 691.92,372.56 C694.50,375.50 695.00,376.90 695.00,381.20 C695.00,389.05 691.81,393.58 681.28,400.67 C670.12,408.18 628.97,436.00 596.00,458.32 C581.97,467.82 562.17,481.22 552.00,488.11 C541.83,494.99 530.58,502.66 527.00,505.15 C517.38,511.85 487.75,531.93 469.50,544.11 C460.70,549.99 450.27,557.07 446.32,559.84 C436.86,566.48 433.30,568.29 432.45,566.92 ZM 437.00 548.21 C437.00,547.78 444.54,539.37 453.75,529.52 C462.96,519.68 473.20,508.64 476.50,505.00 C479.80,501.36 499.09,480.41 519.36,458.44 C539.64,436.47 565.51,408.38 576.86,396.02 C607.69,362.44 611.90,357.75 616.67,357.10 C617.44,357.00 618.23,357.00 619.14,357.00 C619.26,357.00 619.38,357.00 619.50,357.00 C627.56,357.00 632.02,361.65 631.96,369.97 C631.90,377.48 630.04,380.43 619.86,389.12 C611.13,396.58 602.23,404.42 569.48,433.50 C559.57,442.30 548.55,451.97 544.98,454.98 C541.42,458.00 531.96,466.32 523.97,473.48 C515.98,480.64 497.98,496.50 483.97,508.73 C469.96,520.95 454.00,535.00 448.50,539.95 C438.91,548.57 437.00,549.94 437.00,548.21 Z"/>

    <!-- Light blue ray -->
    <path class="ray-blue" d="M 427.74 587.41 C426.17,585.84 427.05,582.04 429.25,580.90 C432.89,579.01 480.86,549.12 488.56,543.94 C492.44,541.34 501.44,535.62 508.56,531.24 C524.51,521.43 550.99,504.89 565.00,495.97 C582.24,485.00 623.58,459.08 639.25,449.41 C646.52,444.93 661.40,435.69 695.29,414.59 C734.14,390.42 737.28,388.72 744.09,388.21 C750.96,387.69 755.03,389.55 758.43,394.78 C762.14,400.47 762.65,406.61 759.95,412.90 C756.86,420.09 755.83,420.74 710.50,444.02 C699.50,449.67 677.67,460.92 662.00,469.02 C646.33,477.12 622.70,489.25 609.50,495.98 C552.23,525.20 540.18,531.43 463.00,571.73 C434.27,586.73 429.28,588.95 427.74,587.41 Z"/>

    <!-- White prism -->
    <path class="prism" d="M 371.00 628.92 C359.85,623.87 354.32,613.05 356.86,601.22 C357.86,596.56 371.02,572.78 405.69,513.00 C419.49,489.21 443.71,446.65 449.81,435.50 C470.44,397.73 475.72,391.98 489.72,392.02 C499.07,392.04 502.04,394.36 512.24,409.51 C517.05,416.65 520.99,423.20 520.99,424.05 C521.00,426.03 509.90,439.06 508.79,438.37 C508.33,438.08 505.26,433.84 501.96,428.95 C493.85,416.88 489.11,414.52 483.12,419.55 C481.34,421.05 473.15,434.28 463.16,451.80 C453.84,468.13 442.05,488.70 436.96,497.50 C424.10,519.71 413.95,537.40 405.98,551.50 C402.25,558.10 396.83,567.55 393.94,572.50 C379.36,597.43 377.91,601.23 380.87,606.77 C383.79,612.22 379.14,612.00 493.73,612.00 C590.31,612.00 599.77,611.86 602.03,610.35 C605.71,607.90 607.00,605.94 607.00,602.76 C607.00,599.41 605.63,596.52 596.53,580.71 C592.80,574.23 589.95,568.71 590.21,568.46 C590.96,567.71 605.30,564.05 607.50,564.04 C609.61,564.04 616.61,575.06 625.62,592.57 C629.36,599.84 630.00,601.96 630.00,607.07 C630.00,617.43 625.72,624.26 616.50,628.62 L 611.50 630.98 L 493.50 630.97 C376.94,630.96 375.45,630.93 371.00,628.92 Z"/>
  </g>

  <!-- ============ PRISMA TEXT ============ -->
  <g transform="translate(122, -16) scale(0.55)">
    <!-- P -->
    <g>
      <line class="cls-2" x1="61.79" y1="32.28" x2="61.79" y2="118.36"/>
      <path class="cls-2" d="M96.11,32.78h-34.32v12.5h34.32c4.35,0,7.89-2.8,7.89-6.25h0c0-3.45-3.53-6.25-7.89-6.25Z"/>
    </g>
    <!-- R -->
    <g>
      <line class="cls-2" x1="69.2" y1="118.36" x2="69.2" y2="50.47"/>
      <path class="cls-2" d="M132.63,50.9h-63.43v12.5h63.43c.44.01,2.88.01,4.94-1.83,1.26-1.13,2.05-2.69,2.05-4.42h0c0-3.45-3.13-6.25-6.99-6.25Z"/>
      <path class="cls-2" d="M112.05,63.41c1.47-.02,3.39-.03,5.63,0,1.69.02,2.56.03,3.66.1,2.9.18,4.36.27,5.73.72,4.03,1.3,6.21,4.73,6.8,5.68,1.14,1.84,1.71,3.82,2,4.84.52,1.8.69,3.24.84,4.58.07.58.21,1.9.26,5.68.04,2.61.01,4.53.01,4.58-.03,2.45-.06,6.25-.01,12.07"/>
    </g>
    <!-- I -->
    <g>
      <line class="cls-2" x1="76.62" y1="72.96" x2="76.62" y2="118.36"/>
      <circle class="cls-2" cx="76.62" cy="69.66" r="1.31"/>
    </g>
    <!-- S -->
    <g>
      <path class="cls-2" d="M113.03,68.87h-23.45c-.34-.01-2.22-.01-3.81,1.82-.97,1.12-1.58,2.67-1.58,4.39h0c0,3.43,2.41,6.2,5.39,6.2h5.47"/>
      <path class="cls-2" d="M91.24,81.29c1.13-.02,2.61-.03,4.34,0,1.3.02,1.97.03,2.82.1,2.24.18,3.36.27,4.42.71,3.11,1.29,4.79,4.7,5.24,5.64.88,1.83,1.32,3.8,1.54,4.81.4,1.79.53,3.22.65,4.55,0,.07.01.15.02.24,0,0,.23,2.75.18,5.39-.08,4.41-.12,6.62-1.14,9-1.23,2.87-3.63,5.48-6.46,6.07-.46.1-.85.12-1.13.13"/>
      <path class="cls-2" d="M83.48,117.94c6.08,0,12.17,0,18.25,0"/>
    </g>
    <!-- M (gradient) -->
    <g>
      <path class="cls-3" d="M118.06,118.36V76.06c0-4.35,2.8-7.89,6.25-7.89c3.45,0,6.25,3.53,6.25,7.89v15.93v7.38c0,4.35,2.8,7.89,6.25,7.89c3.45,0,6.25-3.53,6.25-7.89v-11.38v-11.08c0-4.35,2.8-7.89,6.25-7.89c3.45,0,6.25,3.53,6.25,7.89v42.61h21.66"/>
    </g>
    <!-- A -->
    <g>
      <path class="cls-2" d="M176.74,115.17v-37.01c0-4.7-3.08-8.5-6.88-8.5h0c-3.8,0-6.88,3.81-6.88,8.5v37.01"/>
      <line class="cls-2" x1="162.97" y1="96.6" x2="176.74" y2="96.6"/>
    </g>
    <!-- consulting -->
    <text class="cls-4" transform="translate(142.67 130.19) scale(.76 1)"><tspan x="0" y="0">consulting</tspan></text>
  </g>
</svg>
