<?xml version="1.0" encoding="UTF-8"?>
<svg id="Capa_2" data-name="Capa 2" xmlns="http://www.w3.org/2000/svg" viewBox="40 20 155 125">
  <defs>
    <!-- Gradiente para la M -->
    <linearGradient id="mGradient" x1="0%" y1="0%" x2="100%" y2="100%">
      <stop offset="0%" stop-color="#31BEEF"/>
      <stop offset="100%" stop-color="#994E95"/>
    </linearGradient>
    <style>
      .cls-2 {
        stroke: #fbfaf7;
        stroke-dasharray: 300;
        stroke-dashoffset: 300;
        animation: drawLoop 18s ease-out infinite;
      }

      .cls-2, .cls-3 {
        fill: none;
        stroke-miterlimit: 10;
        stroke-width: 1.5px;
      }

      .cls-4 {
        fill: #fbfaf7;
        font-family: EuphemiaUCAS, 'Euphemia UCAS';
        font-size: 10px;
        opacity: 0;
        animation: fadeInLoop 18s ease-out infinite;
      }

      .cls-3 {
        stroke: url(#mGradient);
        stroke-dasharray: 600;
        stroke-dashoffset: 600;
        animation: drawMLoop 18s ease-out infinite;
      }

      /* Animación de dibujo con loop - ciclo total 18s */
      @keyframes drawLoop {
        0% {
          stroke-dashoffset: 300;
        }
        14% {
          /* 2.5s de 18s = dibujo completo */
          stroke-dashoffset: 0;
        }
        85% {
          stroke-dashoffset: 0;
        }
        95% {
          stroke-dashoffset: 300;
        }
        100% {
          stroke-dashoffset: 300;
        }
      }

      /* Animación de dibujo M con loop - empieza a 2.3s, dura 1.2s */
      @keyframes drawMLoop {
        0%, 12.8% {
          /* Esperar 2.3s de 18s */
          stroke-dashoffset: 600;
        }
        19.4% {
          /* 2.3s + 1.2s = 3.5s de 18s = dibujo completo */
          stroke-dashoffset: 0;
        }
        85% {
          stroke-dashoffset: 0;
        }
        95% {
          stroke-dashoffset: 600;
        }
        100% {
          stroke-dashoffset: 600;
        }
      }

      /* Fade in para consulting con loop - después de que A termine (4s) */
      @keyframes fadeInLoop {
        0%, 25% {
          /* Esperar hasta 4.5s de 18s */
          opacity: 0;
        }
        33% {
          /* 4.5s + 1.5s = 6s de 18s */
          opacity: 1;
        }
        85% {
          opacity: 1;
        }
        95% {
          opacity: 0;
        }
        100% {
          opacity: 0;
        }
      }

      /* Delays escalonados para cada grupo de letras - orden P-R-I-S-M-A */
      .letter-p { animation-delay: 0s; }      /* P: 0s - 0.5s */
      .letter-r { animation-delay: 0.5s; }    /* R: 0.5s - 1.2s */
      .letter-i { animation-delay: 1.2s; }    /* I: 1.2s - 1.5s */
      .letter-s { animation-delay: 1.5s; }    /* S: 1.5s - 2.3s */
      .letter-m { animation-delay: 2.3s; }    /* M: 2.3s - 3.5s */
      .letter-a { animation-delay: 3.5s; }    /* A: 3.5s - 4s */
    </style>
  </defs>
  <g>
    <g>
      <!-- P - Primera letra (0s - 0.5s) -->
      <g class="letter-p">
        <line class="cls-2" x1="61.79" y1="32.28" x2="61.79" y2="118.36" style="animation-delay: 0s"/>
        <path class="cls-2" d="M96.11,32.78h-34.32v12.5h34.32c4.35,0,7.89-2.8,7.89-6.25h0c0-3.45-3.53-6.25-7.89-6.25Z" style="animation-delay: 0.2s"/>
      </g>
      <!-- R - Segunda letra (0.5s - 1.2s) -->
      <g class="letter-r">
        <line class="cls-2" x1="69.2" y1="118.36" x2="69.2" y2="50.47" style="animation-delay: 0.5s"/>
        <g>
          <path class="cls-2" d="M132.63,50.9h-63.43v12.5h63.43c.44.01,2.88.01,4.94-1.83,1.26-1.13,2.05-2.69,2.05-4.42h0c0-3.45-3.13-6.25-6.99-6.25Z" style="animation-delay: 0.7s"/>
          <path class="cls-2" d="M112.05,63.41c1.47-.02,3.39-.03,5.63,0,1.69.02,2.56.03,3.66.1,2.9.18,4.36.27,5.73.72,4.03,1.3,6.21,4.73,6.8,5.68,1.14,1.84,1.71,3.82,2,4.84.52,1.8.69,3.24.84,4.58.07.58.21,1.9.26,5.68.04,2.61.01,4.53.01,4.58-.03,2.45-.06,6.25-.01,12.07" style="animation-delay: 0.9s"/>
        </g>
      </g>
      <!-- I - Tercera letra (1.2s - 1.5s) -->
      <g class="letter-i">
        <line class="cls-2" x1="76.62" y1="72.96" x2="76.62" y2="118.36" style="animation-delay: 1.2s"/>
        <circle class="cls-2" cx="76.62" cy="69.66" r="1.31" style="animation-delay: 1.4s"/>
      </g>
      <!-- S - Cuarta letra (1.5s - 2.3s) -->
      <g class="letter-s">
        <path class="cls-2" d="M113.03,68.87h-23.45c-.34-.01-2.22-.01-3.81,1.82-.97,1.12-1.58,2.67-1.58,4.39h0c0,3.43,2.41,6.2,5.39,6.2h5.47" style="animation-delay: 1.5s"/>
        <path class="cls-2" d="M91.24,81.29c1.13-.02,2.61-.03,4.34,0,1.3.02,1.97.03,2.82.1,2.24.18,3.36.27,4.42.71,3.11,1.29,4.79,4.7,5.24,5.64.88,1.83,1.32,3.8,1.54,4.81.4,1.79.53,3.22.65,4.55,0,.07.01.15.02.24,0,0,.23,2.75.18,5.39-.08,4.41-.12,6.62-1.14,9-1.23,2.87-3.63,5.48-6.46,6.07-.46.1-.85.12-1.13.13" style="animation-delay: 1.8s"/>
        <path class="cls-2" d="M83.48,117.94c6.08,0,12.17,0,18.25,0" style="animation-delay: 2.1s"/>
      </g>
      <!-- M - Quinta letra (2.3s - 3.5s) - en violeta -->
      <g class="letter-m">
        <path class="cls-3" d="M118.06,118.36
          V76.06
          c0-4.35,2.8-7.89,6.25-7.89
          c3.45,0,6.25,3.53,6.25,7.89
          v15.93
          v7.38
          c0,4.35,2.8,7.89,6.25,7.89
          c3.45,0,6.25-3.53,6.25-7.89
          v-11.38
          v-11.08
          c0-4.35,2.8-7.89,6.25-7.89
          c3.45,0,6.25,3.53,6.25,7.89
          v42.61
          h21.66" style="animation-delay: 2.3s"/>
      </g>
      <!-- A - Sexta letra (3.5s - 4s) -->
      <g class="letter-a">
        <path class="cls-2" d="M176.74,115.17v-37.01c0-4.7-3.08-8.5-6.88-8.5h0c-3.8,0-6.88,3.81-6.88,8.5v37.01" style="animation-delay: 3.5s"/>
        <line class="cls-2" x1="162.97" y1="96.6" x2="176.74" y2="96.6" style="animation-delay: 3.8s"/>
      </g>
    </g>
    <text class="cls-4" transform="translate(142.67 130.19) scale(.76 1)"><tspan x="0" y="0">consulting</tspan></text>
  </g>
</svg>
