<svg xmlns="http://www.w3.org/2000/svg" width="1064" height="985" viewBox="0 0 1064 985">
<g>
<path d="M 457.99 543.52 C457.27,544.38 455.29,546.02 453.59,547.15 C451.64,548.45 452.07,547.84 454.75,545.52 C457.94,542.76 459.00,541.10 459.00,538.92 C459.00,534.48 454.68,535.28 448.75,540.81 C447.24,542.22 446.00,543.13 446.00,542.84 C446.00,542.00 464.47,525.35 487.98,505.00 C499.73,494.83 516.15,480.42 524.46,473.00 C532.77,465.58 544.25,455.45 549.98,450.50 C555.70,445.55 562.91,439.25 565.99,436.50 C569.07,433.75 576.52,427.18 582.55,421.89 C617.08,391.60 629.21,380.49 630.53,377.95 C632.41,374.30 632.42,366.71 630.54,363.09 C627.67,357.52 618.28,355.31 612.50,358.84 C610.85,359.85 605.00,365.58 599.50,371.58 C594.00,377.57 584.10,388.34 577.50,395.50 C570.90,402.67 553.35,421.77 538.50,437.96 C523.65,454.14 504.30,475.09 495.50,484.50 C486.70,493.92 471.42,510.32 461.54,520.94 C451.67,531.57 443.41,539.72 443.18,539.05 C442.96,538.39 443.95,536.61 445.39,535.11 C446.83,533.62 448.00,531.87 448.00,531.23 C448.00,529.02 454.04,523.20 458.51,521.10 C462.55,519.20 463.49,518.11 463.12,515.76 C463.06,515.35 464.81,513.89 467.00,512.50 C469.45,510.96 471.00,509.21 471.00,508.02 C471.00,506.94 472.39,505.03 474.10,503.78 C475.80,502.53 477.89,500.15 478.75,498.50 C480.53,495.07 485.52,489.84 488.56,488.23 C489.69,487.63 491.49,485.32 492.56,483.09 C493.77,480.56 495.51,478.69 497.20,478.09 C500.41,476.96 505.93,471.17 505.97,468.90 C505.99,468.02 508.63,465.02 511.83,462.23 C515.51,459.03 518.01,455.94 518.61,453.88 C519.32,451.38 520.70,450.01 524.46,448.06 C527.87,446.28 529.70,444.58 530.44,442.50 C532.07,437.89 535.01,434.05 538.14,432.43 C539.70,431.62 541.84,429.28 542.90,427.23 C543.95,425.18 546.09,422.73 547.65,421.80 C549.22,420.86 552.18,418.38 554.24,416.30 C556.29,414.21 560.23,410.29 562.99,407.59 C565.74,404.89 568.00,402.20 568.00,401.61 C568.00,401.02 570.38,398.28 573.28,395.52 C576.19,392.76 580.19,388.64 582.17,386.37 C584.15,384.11 587.20,381.41 588.95,380.37 C592.87,378.06 599.00,370.35 599.00,367.73 C599.00,365.37 607.26,357.38 611.72,355.42 C613.49,354.64 616.54,354.00 618.50,354.00 C623.22,354.00 631.64,358.32 632.60,361.23 C633.57,364.19 633.08,380.66 631.93,383.69 C631.44,384.98 629.83,386.49 628.36,387.05 C626.89,387.61 624.16,389.40 622.31,391.04 C620.45,392.67 618.12,394.00 617.14,394.00 C616.14,394.00 613.02,396.87 610.11,400.45 C607.24,404.00 604.00,407.18 602.93,407.52 C601.86,407.86 600.30,409.46 599.46,411.08 C598.13,413.64 594.21,416.86 587.84,420.60 C586.81,421.20 583.88,423.82 581.33,426.41 C578.77,429.00 574.95,432.00 572.84,433.08 C570.73,434.16 569.00,435.49 569.00,436.04 C569.00,437.63 560.89,446.00 557.82,447.59 C556.29,448.39 554.33,450.40 553.46,452.08 C552.49,453.95 550.27,455.83 547.69,456.96 C545.39,457.97 541.25,461.12 538.50,463.97 C535.75,466.82 532.23,469.83 530.67,470.64 C529.12,471.46 527.28,473.49 526.58,475.14 C525.88,476.80 524.40,478.69 523.29,479.33 C522.18,479.97 519.43,481.51 517.17,482.75 C514.91,483.99 512.58,485.92 511.98,487.04 C510.72,489.40 503.90,495.93 502.66,495.97 C502.20,495.99 498.60,499.18 494.66,503.07 C490.72,506.96 485.36,511.30 482.75,512.73 C480.14,514.15 478.00,515.64 478.00,516.04 C478.00,516.43 475.41,518.85 472.25,521.40 C463.66,528.34 461.00,531.13 461.00,533.21 C461.00,536.32 467.66,534.39 473.50,529.59 C476.25,527.33 480.08,524.44 482.00,523.18 C485.44,520.91 485.44,520.93 481.50,524.50 C479.30,526.49 473.40,531.23 468.40,535.03 C463.39,538.83 458.71,542.65 457.99,543.52 ZM 461.00 551.48 C461.00,551.18 460.10,551.41 459.00,552.00 C452.82,555.31 460.31,549.90 477.50,538.63 C481.35,536.11 489.00,530.91 494.50,527.08 C500.00,523.25 506.52,518.89 509.00,517.40 C511.48,515.91 518.00,511.49 523.50,507.58 C529.00,503.67 542.15,494.63 552.73,487.48 C563.31,480.34 576.36,471.52 581.73,467.88 C590.34,462.05 591.54,461.50 591.84,463.26 C592.27,465.84 590.62,467.27 584.66,469.46 C581.25,470.71 579.03,472.38 577.16,475.08 C575.70,477.19 573.72,478.94 572.77,478.96 C569.26,479.04 562.91,482.31 560.96,485.05 C559.85,486.61 558.00,488.18 556.84,488.55 C555.68,488.92 552.65,490.81 550.11,492.76 C547.58,494.71 543.25,497.31 540.50,498.53 C537.75,499.76 534.65,501.71 533.62,502.86 C532.58,504.01 531.35,504.72 530.89,504.43 C530.42,504.14 527.28,506.62 523.90,509.94 C520.52,513.26 515.44,517.07 512.60,518.41 C509.77,519.75 506.56,521.83 505.48,523.03 C503.03,525.73 498.75,528.00 496.09,528.00 C494.98,528.00 493.50,528.73 492.79,529.62 C489.27,534.05 485.56,537.00 483.52,537.00 C482.04,537.00 480.44,538.23 478.88,540.57 C477.23,543.05 474.11,545.36 468.75,548.08 C464.49,550.25 461.00,551.78 461.00,551.48 ZM 519.04 494.50 C499.54,510.54 486.04,520.87 487.50,518.63 C488.33,517.37 488.76,516.09 488.46,515.79 C487.56,514.90 493.81,510.15 499.70,507.27 C502.73,505.79 506.91,502.64 508.99,500.27 C511.07,497.91 515.17,494.69 518.10,493.13 C522.20,490.94 524.03,489.16 526.05,485.39 C528.10,481.59 529.30,480.43 531.47,480.17 C533.19,479.97 536.13,477.97 539.17,474.92 C542.28,471.81 544.96,470.00 546.45,470.00 C548.20,470.00 549.76,468.56 552.52,464.40 C554.72,461.08 557.52,458.24 559.37,457.43 C561.09,456.67 563.85,454.65 565.50,452.93 C569.07,449.22 573.49,446.76 575.80,447.20 C576.86,447.40 571.87,451.96 561.98,459.83 C544.16,474.01 532.79,483.19 519.04,494.50 ZM 440.00 574.46 C439.17,575.12 436.43,576.84 433.89,578.29 L 429.28 580.92 L 429.55 578.48 C429.70,577.14 430.51,575.35 431.35,574.51 C432.73,573.13 432.63,572.73 430.44,570.53 C429.10,569.19 428.00,567.58 428.00,566.95 C428.00,564.38 432.08,560.21 435.02,559.78 L 438.07 559.34 L 435.03 562.47 C429.28,568.40 431.98,569.96 439.10,564.83 C441.52,563.08 442.91,562.38 442.18,563.26 C440.50,565.31 442.06,568.57 445.18,569.56 C447.29,570.23 447.26,570.31 444.43,571.75 C442.82,572.58 440.83,573.79 440.00,574.46 ZM 448.56 584.98 C445.12,586.29 437.17,587.08 436.60,586.17 C436.34,585.74 440.35,583.29 445.52,580.72 C451.34,577.83 455.16,576.45 455.56,577.09 C455.91,577.67 455.95,578.39 455.64,578.70 C455.32,579.01 455.54,580.13 456.10,581.20 C456.83,582.56 456.80,583.53 456.01,584.49 C455.12,585.56 455.38,585.94 457.19,586.29 C459.19,586.67 459.12,586.75 456.68,586.86 C455.13,586.94 453.20,586.34 452.39,585.54 C451.34,584.48 450.27,584.33 448.56,584.98 ZM 671.00 429.70 C664.67,433.55 658.98,436.99 658.34,437.35 C657.56,437.79 657.37,437.30 657.76,435.83 C658.86,431.59 671.06,422.57 674.30,423.59 C675.29,423.91 676.76,423.62 677.57,422.94 C679.15,421.63 684.84,420.63 683.38,421.92 C682.89,422.35 677.33,425.85 671.00,429.70 ZM 654.11 423.36 C652.96,424.75 646.00,425.82 646.00,424.60 C646.00,424.39 648.36,422.71 651.25,420.87 C654.14,419.03 660.32,414.87 664.99,411.63 C669.66,408.38 672.92,406.39 672.25,407.20 C671.57,408.02 671.28,408.94 671.59,409.26 C672.60,410.27 663.66,418.21 659.49,420.00 C657.28,420.95 654.86,422.46 654.11,423.36 ZM 587.50 481.91 C585.30,483.22 581.33,485.58 578.68,487.16 C576.03,488.74 574.23,489.46 574.67,488.76 C575.52,487.42 575.68,486.87 575.88,484.52 C576.06,482.35 579.89,480.23 584.95,479.49 C589.19,478.87 591.90,476.88 591.97,474.32 C591.99,473.67 593.24,473.16 594.75,473.18 C596.26,473.21 597.95,473.13 598.50,473.00 C602.77,472.00 598.91,475.13 587.50,481.91 ZM 650.04 388.83 C648.13,390.30 641.42,395.72 635.12,400.87 L 623.67 410.25 L 628.58 404.00 C634.48,396.49 640.00,391.00 641.65,391.00 C642.31,391.00 643.58,390.27 644.47,389.38 C645.36,388.50 647.76,387.41 649.79,386.96 L 653.50 386.16 ZM 610.75 420.56 C604.01,425.95 597.49,431.25 596.26,432.34 L 594.02 434.33 L 596.03 430.17 C597.33,427.48 599.34,425.33 601.77,424.06 C603.82,422.98 606.56,420.95 607.85,419.55 C609.15,418.15 610.83,417.00 611.58,417.00 C612.33,417.00 613.65,415.65 614.50,414.00 C615.35,412.35 616.38,410.93 616.78,410.84 C618.15,410.55 623.00,410.30 623.00,410.53 C623.00,410.65 617.49,415.16 610.75,420.56 ZM 636.74 450.93 C631.11,454.47 625.49,458.01 624.25,458.80 C622.26,460.07 622.00,460.05 622.00,458.64 C622.00,457.77 623.34,456.36 624.97,455.52 C626.60,454.67 628.41,453.10 628.99,452.02 C629.56,450.95 632.29,449.27 635.05,448.29 C637.81,447.31 641.25,445.49 642.69,444.25 C644.13,443.01 645.80,441.97 646.41,441.92 C647.98,441.81 650.20,441.30 652.50,440.51 C653.60,440.13 652.81,440.87 650.74,442.16 C648.67,443.45 642.37,447.39 636.74,450.93 ZM 1064.00 183.03 L 1064.00 678.50 C1064.00,406.72 1063.83,372.00 1062.50,372.00 C1061.58,372.00 1061.00,371.07 1061.00,369.61 C1061.00,368.29 1061.68,366.95 1062.50,366.64 C1063.83,366.13 1064.00,344.80 1064.00,183.03 ZM 690.63 399.02 C688.89,400.12 680.00,402.18 680.00,401.48 C680.00,401.37 682.46,399.65 685.47,397.65 C691.52,393.63 694.06,389.76 695.06,383.00 C695.68,378.82 695.74,378.99 695.87,385.35 C696.01,392.69 694.53,396.55 690.63,399.02 ZM 673.97 369.65 C672.61,370.56 670.04,372.67 668.25,374.35 C665.56,376.86 665.00,377.08 665.00,375.58 C665.00,374.58 666.35,372.23 668.00,370.35 C669.65,368.47 671.00,366.50 671.00,365.97 C671.00,364.56 674.27,364.78 678.14,366.46 C681.25,367.81 681.31,367.92 678.97,367.96 C677.58,367.98 675.33,368.74 673.97,369.65 ZM 739.80 434.36 C736.58,435.22 731.00,435.15 731.02,434.25 C731.04,433.09 745.00,425.83 745.00,426.98 C745.00,427.54 744.61,428.00 744.12,428.00 C743.64,428.00 742.99,429.29 742.68,430.87 C742.30,432.75 741.31,433.95 739.80,434.36 ZM 592.55 434.91 C592.24,435.41 589.03,438.15 585.42,440.99 C580.68,444.71 579.19,445.50 580.09,443.83 C581.82,440.57 585.31,435.64 586.50,434.77 C587.95,433.70 593.22,433.83 592.55,434.91 ZM 607.55 453.50 C603.36,457.81 600.74,459.00 599.58,457.13 C599.11,456.36 602.26,453.95 613.34,446.58 L 616.23 444.66 L 614.87 446.83 C614.13,448.02 613.16,449.00 612.72,449.00 C612.28,449.00 609.96,451.02 607.55,453.50 ZM 565.74 495.50 C557.62,500.95 553.46,502.90 551.99,501.97 C550.49,501.02 550.65,500.94 554.78,500.51 C557.44,500.23 558.07,499.73 558.37,497.69 C558.82,494.61 561.19,493.02 565.10,493.18 L 568.98 493.33 ZM 708.82 406.17 C706.45,407.51 703.30,409.39 701.84,410.36 C700.34,411.35 698.93,411.70 698.60,411.17 C697.97,410.14 699.51,408.66 702.25,407.69 C703.21,407.34 704.00,406.45 704.00,405.70 C704.00,404.07 711.08,401.68 712.30,402.90 C712.76,403.36 711.20,404.84 708.82,406.17 ZM 755.00 387.06 C755.00,389.38 753.81,390.12 751.95,388.95 C751.15,388.44 748.25,387.97 745.50,387.90 C741.12,387.78 740.87,387.67 743.50,387.00 C745.15,386.58 746.05,386.12 745.50,385.99 C743.76,385.55 751.42,384.41 753.25,384.83 C754.21,385.05 755.00,386.05 755.00,387.06 ZM 735.36 390.53 C734.92,390.75 734.52,390.95 734.15,391.14 C731.48,392.50 730.51,393.00 730.17,392.72 C729.98,392.56 729.98,392.16 729.99,391.53 C730.00,391.37 730.00,391.20 730.00,391.02 C730.00,389.94 731.14,388.30 732.54,387.38 C734.62,386.02 735.55,385.93 737.65,386.89 L 740.22 388.06 ZM 575.54 515.23 C575.88,516.13 574.71,516.93 572.00,517.65 C565.20,519.47 566.68,517.60 575.52,513.22 C581.00,510.50 583.71,509.58 583.34,510.57 C582.62,512.44 577.28,515.29 575.98,514.49 C575.45,514.16 575.25,514.50 575.54,515.23 ZM 510.61 530.03 C508.22,531.55 505.27,533.32 504.06,533.97 C502.07,535.03 501.95,534.97 502.83,533.31 C504.37,530.44 507.45,528.02 510.79,527.06 C515.49,525.71 515.41,526.99 510.61,530.03 ZM 663.29 471.95 C659.98,473.51 656.18,474.10 655.59,473.14 C655.36,472.77 657.90,471.03 661.24,469.28 C664.57,467.53 666.82,466.58 666.23,467.17 C665.64,467.76 665.36,468.78 665.62,469.44 C665.87,470.10 664.82,471.23 663.29,471.95 ZM 588.08 546.92 C586.48,548.52 584.80,548.98 580.75,548.93 L 575.50 548.85 L 582.42 546.43 C586.23,545.10 589.53,544.20 589.76,544.42 C589.98,544.65 589.23,545.77 588.08,546.92 ZM 548.34 506.17 C546.78,507.23 544.24,508.77 542.71,509.59 L 539.92 511.09 L 542.21 507.59 C544.47,504.15 548.09,502.32 550.14,503.59 C550.75,503.96 549.99,505.05 548.34,506.17 ZM 694.37 369.85 C695.47,371.08 695.78,372.35 695.27,373.60 C694.57,375.32 694.16,375.15 690.85,371.75 L 687.21 368.00 L 689.95 368.00 C691.46,368.00 693.44,368.83 694.37,369.85 ZM 623.09 441.41 C621.03,443.59 616.38,445.80 617.44,444.09 C618.44,442.48 629.77,435.11 630.36,435.69 C631.32,436.65 628.97,439.00 627.05,439.00 C626.12,439.00 624.33,440.08 623.09,441.41 ZM 676.00 482.72 C675.17,483.03 671.80,484.58 668.50,486.17 L 662.50 489.07 L 666.42 485.53 C669.43,482.81 671.16,482.02 673.92,482.08 C675.89,482.12 676.83,482.41 676.00,482.72 ZM 763.41 413.37 C763.07,414.27 761.92,415.00 760.86,415.00 C759.26,415.00 759.11,414.67 759.96,413.07 C760.53,412.00 761.08,408.74 761.17,405.82 L 761.35 400.50 L 761.74 404.98 C761.96,407.44 762.56,409.98 763.09,410.60 C763.61,411.23 763.75,412.48 763.41,413.37 ZM 354.59 600.51 C354.24,601.88 353.52,603.00 352.98,603.00 C351.38,603.00 351.85,597.27 353.50,596.64 C355.43,595.90 358.16,596.93 357.43,598.12 C357.12,598.62 356.49,598.80 356.04,598.52 C355.58,598.24 354.93,599.14 354.59,600.51 ZM 511.65 439.88 C510.38,440.93 505.42,441.09 504.44,440.11 C503.39,439.06 504.12,436.33 505.46,436.33 C506.26,436.33 506.71,436.66 506.47,437.05 C506.22,437.45 506.70,438.34 507.53,439.02 C508.76,440.04 509.40,439.94 511.02,438.48 C512.11,437.50 513.00,437.15 513.00,437.72 C513.00,438.29 512.39,439.26 511.65,439.88 ZM 559.24 523.54 C558.83,525.68 558.23,526.00 554.63,525.99 C550.62,525.99 550.57,525.95 553.00,524.67 C554.38,523.95 556.45,522.85 557.60,522.22 C559.51,521.19 559.66,521.31 559.24,523.54 ZM 693.05 455.47 C689.64,457.24 689.30,457.29 688.61,456.18 C688.33,455.72 690.08,454.39 692.51,453.21 C695.59,451.71 697.13,451.40 697.62,452.19 C698.04,452.87 697.86,453.03 697.15,452.60 C696.52,452.20 696.00,452.35 696.00,452.92 C696.00,453.48 694.67,454.64 693.05,455.47 ZM 507.93 551.13 C506.79,553.27 503.00,553.68 503.00,551.66 C503.00,550.22 507.43,547.77 508.37,548.70 C508.68,549.01 508.48,550.10 507.93,551.13 ZM 409.82 551.08 C408.51,554.84 407.55,555.38 405.86,553.30 C404.93,552.14 404.89,551.85 405.75,552.37 C406.90,553.06 407.48,551.89 407.09,549.68 C407.01,549.22 407.49,549.18 408.15,549.59 C408.95,550.09 409.14,549.80 408.72,548.71 C408.30,547.61 408.54,547.27 409.47,547.63 C410.54,548.04 410.61,548.81 409.82,551.08 ZM 356.25 615.76 C355.81,617.06 355.30,617.16 353.25,616.34 C351.73,615.72 351.57,612.00 353.07,612.00 C354.71,612.00 356.71,614.37 356.25,615.76 ZM 476.14 550.74 C476.58,551.18 474.88,552.79 472.36,554.32 L 467.78 557.09 L 470.14 554.11 C472.80,550.76 474.95,549.55 476.14,550.74 ZM 632.63 531.79 C631.67,533.35 626.44,534.89 625.05,534.03 C624.23,533.53 624.78,533.03 626.65,532.58 C628.22,532.21 630.34,531.65 631.38,531.35 C632.50,531.01 633.00,531.19 632.63,531.79 ZM 485.50 562.23 C484.51,562.96 479.28,563.34 480.08,562.63 C480.31,562.42 481.97,561.51 483.76,560.60 C486.15,559.38 486.95,559.28 486.76,560.22 C486.62,560.92 486.05,561.83 485.50,562.23 ZM 615.36 495.50 C614.73,497.13 611.46,497.55 610.56,496.10 C609.98,495.16 612.19,494.00 614.55,494.00 C615.37,494.00 615.70,494.61 615.36,495.50 ZM 639.00 431.00 C638.41,432.10 636.93,432.99 635.71,432.97 L 633.50 432.93 L 635.86 430.97 C638.91,428.43 640.37,428.44 639.00,431.00 ZM 456.50 422.00 C457.20,423.13 456.67,423.34 455.67,422.33 C454.48,421.15 454.96,418.23 456.43,417.66 C457.40,417.29 457.82,417.75 457.72,419.06 C457.64,420.13 457.19,421.00 456.73,421.00 C456.26,421.00 456.16,421.45 456.50,422.00 ZM 571.70 530.19 C572.70,530.38 571.95,531.14 569.64,532.23 C567.64,533.19 566.00,533.54 566.00,533.02 C566.00,531.69 569.78,529.81 571.70,530.19 ZM 512.00 404.50 C512.00,405.26 511.54,406.17 510.98,406.52 C510.41,406.86 510.01,406.78 510.09,406.32 C510.47,404.14 509.89,402.94 508.75,403.59 C507.79,404.13 507.77,404.00 508.66,403.03 C510.00,401.58 512.00,402.46 512.00,404.50 ZM 613.92 465.30 C613.69,465.47 612.23,466.40 610.68,467.37 C607.89,469.12 607.87,469.12 608.96,467.07 C609.57,465.93 611.03,465.00 612.20,465.00 C613.37,465.00 614.15,465.14 613.92,465.30 ZM 433.30 462.34 C433.97,464.10 433.76,464.43 432.67,463.33 C431.68,462.35 431.86,459.00 432.89,459.00 C433.38,459.00 434.05,459.70 434.38,460.55 C434.77,461.57 434.58,461.86 433.82,461.39 C433.04,460.91 432.87,461.22 433.30,462.34 ZM 763.00 397.00 C763.00,398.10 762.78,399.00 762.50,399.00 C762.22,399.00 762.00,398.52 762.00,397.94 C762.00,397.36 761.56,397.16 761.01,397.49 C760.44,397.84 760.28,397.44 760.62,396.55 C761.47,394.34 763.00,394.63 763.00,397.00 ZM 586.00 523.89 C586.00,524.38 585.35,525.04 584.55,525.34 C583.58,525.71 583.29,525.42 583.66,524.45 C584.26,522.87 586.00,522.46 586.00,523.89 ZM 497.00 424.00 C497.00,424.55 496.55,425.00 496.00,425.00 C495.45,425.00 495.00,424.55 495.00,424.00 C495.00,423.45 495.45,423.00 496.00,423.00 C496.55,423.00 497.00,423.45 497.00,424.00 Z" fill="rgb(31,49,73)"/>
<path d="M 457.99 543.52 C458.71,542.65 463.39,538.83 468.40,535.03 C473.40,531.23 479.30,526.49 481.50,524.50 C485.44,520.93 485.44,520.91 482.00,523.18 C480.08,524.44 476.25,527.33 473.50,529.59 C471.08,531.58 468.52,533.08 466.35,533.92 C468.52,533.07 471.08,531.56 473.50,529.56 C476.25,527.28 480.44,524.12 482.81,522.53 C485.01,521.06 486.72,519.55 487.71,518.30 C487.65,518.41 487.58,518.52 487.50,518.63 C486.04,520.87 499.54,510.54 519.04,494.50 C532.79,483.19 544.16,474.01 561.98,459.83 C571.87,451.96 576.86,447.40 575.80,447.20 C575.46,447.14 575.09,447.13 574.68,447.18 C575.23,447.07 575.75,447.00 576.25,447.00 C577.76,447.00 579.00,446.63 579.00,446.17 C579.00,446.00 579.33,445.33 579.85,444.39 C579.68,445.22 581.35,444.19 585.42,440.99 C589.03,438.15 592.24,435.41 592.55,434.91 C592.88,434.39 591.81,434.09 590.45,434.04 C593.51,433.62 594.50,433.11 595.69,430.88 L 594.02 434.33 L 596.26 432.34 C597.49,431.25 604.01,425.95 610.75,420.56 C617.49,415.16 623.00,410.65 623.00,410.53 C623.00,410.33 619.52,410.48 617.62,410.71 C618.62,410.15 619.68,409.91 620.65,410.08 C622.68,410.45 623.90,409.68 627.92,404.84 L 623.67 410.25 L 635.12 400.87 C641.42,395.72 648.13,390.30 650.04,388.83 L 653.50 386.16 L 651.35 386.62 C652.05,386.42 652.75,386.15 653.32,385.85 C657.37,383.73 665.00,376.83 665.00,375.29 C665.00,374.45 666.35,372.23 668.00,370.35 C669.65,368.47 671.00,366.44 671.00,365.85 C671.00,365.49 671.12,365.26 671.63,365.19 C671.23,365.34 671.00,365.59 671.00,365.97 C671.00,366.50 669.65,368.47 668.00,370.35 C666.35,372.23 665.00,374.58 665.00,375.58 C665.00,377.08 665.56,376.86 668.25,374.35 C670.04,372.67 672.61,370.56 673.97,369.65 C675.33,368.74 677.58,367.98 678.97,367.96 C681.31,367.92 681.25,367.81 678.14,366.46 C677.76,366.30 677.39,366.15 677.03,366.01 C678.14,366.25 679.45,366.54 681.00,366.89 C683.47,367.45 687.13,367.93 689.13,367.96 C689.39,367.96 689.65,367.97 689.92,368.00 L 687.21 368.00 L 690.85 371.75 C693.93,374.91 694.50,375.28 695.13,373.94 C695.35,375.66 695.54,377.80 695.66,380.24 C695.55,379.87 695.38,380.87 695.06,383.00 C694.06,389.76 691.52,393.63 685.47,397.65 C682.46,399.65 680.00,401.37 680.00,401.48 C680.00,401.73 681.09,401.63 682.59,401.36 C678.79,402.62 672.19,406.83 671.51,408.55 C671.61,408.15 671.87,407.66 672.25,407.20 C672.92,406.39 669.66,408.38 664.99,411.63 C660.32,414.87 654.14,419.03 651.25,420.87 C648.36,422.71 646.00,424.39 646.00,424.60 C646.00,424.97 646.64,425.13 647.56,425.13 C644.15,425.65 640.86,427.63 639.41,430.09 C639.93,428.49 638.49,428.78 635.86,430.97 L 633.50 432.93 L 635.71 432.97 C636.59,432.98 637.59,432.53 638.31,431.87 C637.62,432.60 636.72,433.00 635.71,433.00 C633.93,433.00 630.02,435.01 629.92,435.72 C627.74,436.44 618.35,442.63 617.44,444.09 C617.16,444.54 617.28,444.72 617.65,444.70 C616.92,445.16 616.01,445.85 614.90,446.79 L 616.23 444.66 L 613.34 446.58 C602.26,453.95 599.11,456.36 599.58,457.13 C599.69,457.31 599.82,457.46 599.95,457.58 C596.88,457.67 592.03,461.17 592.01,463.63 C592.00,465.91 591.11,466.90 586.77,468.64 C591.01,466.88 592.21,465.50 591.84,463.26 C591.54,461.50 590.34,462.05 581.73,467.88 C576.36,471.52 563.31,480.34 552.73,487.48 C542.15,494.63 529.00,503.67 523.50,507.58 C518.00,511.49 511.48,515.91 509.00,517.40 C506.52,518.89 500.00,523.25 494.50,527.08 C489.00,530.91 481.35,536.11 477.50,538.63 C460.31,549.90 452.82,555.31 459.00,552.00 C460.10,551.41 461.00,551.18 461.00,551.48 C461.00,551.48 461.00,551.49 461.00,551.49 C460.87,551.52 460.74,551.55 460.62,551.57 C459.46,551.80 457.18,552.97 455.53,554.19 C453.89,555.40 449.95,558.12 446.77,560.23 C444.58,561.69 442.66,563.17 441.68,564.12 C441.80,563.82 441.96,563.53 442.18,563.26 C442.91,562.38 441.52,563.08 439.10,564.83 C431.98,569.96 429.28,568.40 435.03,562.47 L 438.07 559.34 L 436.59 559.55 C438.62,558.83 441.10,557.16 444.98,554.03 C448.00,551.58 450.45,549.52 452.40,547.76 C452.31,547.94 452.70,547.74 453.59,547.15 C455.29,546.02 457.27,544.38 457.99,543.52 ZM 446.12 542.88 C445.77,543.17 445.41,543.48 445.04,543.79 C441.22,547.03 438.42,548.76 438.18,548.05 C437.96,547.38 438.95,545.61 440.39,544.11 C441.83,542.62 443.00,540.48 443.00,539.37 C443.00,538.26 444.12,536.30 445.49,535.01 C443.95,536.61 442.96,538.39 443.18,539.05 C443.41,539.72 451.67,531.57 461.54,520.94 C471.42,510.32 486.70,493.92 495.50,484.50 C504.30,475.09 523.65,454.14 538.50,437.96 C553.35,421.77 570.90,402.67 577.50,395.50 C584.10,388.34 594.00,377.57 599.50,371.58 C605.00,365.58 610.85,359.85 612.50,358.84 C618.28,355.31 627.67,357.52 630.54,363.09 C632.42,366.71 632.41,374.30 630.53,377.95 C629.21,380.49 617.08,391.60 582.55,421.89 C576.52,427.18 569.07,433.75 565.99,436.50 C562.91,439.25 555.70,445.55 549.98,450.50 C544.25,455.45 532.77,465.58 524.46,473.00 C516.15,480.42 499.73,494.83 487.98,505.00 C464.47,525.35 446.00,542.00 446.00,542.84 C446.00,542.89 446.04,542.90 446.12,542.88 ZM 607.55 453.50 C609.25,451.75 610.91,450.23 611.89,449.49 C610.57,450.72 609.06,452.17 607.36,453.86 C605.25,455.95 603.79,457.11 602.61,457.55 C603.91,456.91 605.55,455.56 607.55,453.50 ZM 454.88 545.41 C457.82,542.46 458.98,540.51 459.00,538.86 C459.00,538.88 459.00,538.90 459.00,538.92 C459.00,541.07 457.96,542.71 454.88,545.41 ZM 455.94 536.16 C454.39,536.68 452.17,538.09 449.19,540.41 C451.89,537.96 454.23,536.53 455.94,536.16 ZM 684.34 401.00 C686.23,400.57 688.31,400.00 689.62,399.49 C687.93,400.44 686.08,401.00 684.34,401.00 ZM 586.52 434.75 C586.52,434.75 586.51,434.76 586.50,434.77 C585.82,435.27 584.37,437.11 582.94,439.20 C584.01,437.50 585.05,435.93 585.70,435.06 C585.77,434.98 586.06,434.87 586.52,434.75 ZM 462.26 551.13 C463.64,550.58 466.04,549.46 468.75,548.08 C469.39,547.76 470.00,547.44 470.58,547.12 C467.71,548.84 464.64,550.35 462.26,551.13 ZM 694.30 395.07 C695.26,393.18 695.75,390.78 695.85,387.65 C695.82,391.50 695.42,393.18 694.43,394.85 C694.39,394.92 694.34,394.99 694.30,395.07 ZM 649.82 386.96 L 649.79 386.96 C648.23,387.30 646.45,388.03 645.31,388.75 C646.56,387.76 648.25,387.00 649.22,387.00 C649.40,387.00 649.60,386.98 649.82,386.96 ZM 444.77 569.41 C443.35,568.85 442.31,567.81 441.82,566.66 C442.58,567.65 443.75,568.74 444.77,569.41 ZM 641.18 391.10 C639.80,391.63 637.07,394.12 633.79,397.77 C637.34,393.71 639.78,391.52 641.18,391.10 ZM 654.11 423.36 C653.34,424.29 651.32,424.99 649.34,425.00 C651.30,424.73 653.51,424.09 654.11,423.36 ZM 434.17 560.00 C432.84,560.46 431.40,561.51 430.24,562.74 C431.55,561.23 433.13,560.00 434.13,560.00 ZM 623.09 441.41 C624.33,440.08 626.11,439.00 627.05,439.00 C626.11,439.00 624.29,440.13 623.00,441.50 C621.84,442.74 620.38,443.78 619.58,443.97 C620.78,443.33 622.19,442.37 623.09,441.41 ZM 630.54 435.99 C631.13,436.11 630.73,436.81 629.97,437.50 C630.43,436.98 630.68,436.41 630.54,435.99 ZM 569.03 449.85 C567.83,450.72 566.62,451.76 565.50,452.93 C565.17,453.27 564.81,453.62 564.41,453.97 C564.62,453.77 564.82,453.57 565.00,453.38 C566.26,452.02 567.63,450.83 569.03,449.85 ZM 667.44 414.37 C664.91,416.68 661.73,419.03 659.49,420.00 C661.56,419.11 664.82,416.69 667.44,414.37 ZM 596.33 429.59 C597.45,427.33 599.47,425.27 601.75,424.07 C601.75,424.06 601.76,424.06 601.77,424.06 C599.52,425.24 597.63,427.17 596.33,429.59 ZM 644.18 389.66 C643.44,390.32 642.53,390.84 641.92,390.97 C642.46,390.80 643.32,390.30 644.18,389.66 ZM 488.50 515.85 C488.48,515.82 488.45,515.78 488.42,515.76 C487.98,515.31 489.44,513.84 491.74,512.12 C489.43,513.85 488.00,515.33 488.46,515.79 C488.48,515.81 488.49,515.83 488.50,515.85 ZM 694.00 369.51 C693.57,369.14 693.00,368.81 692.39,368.55 C693.11,368.81 693.69,369.15 694.00,369.51 ZM 671.47 408.92 C671.48,408.95 671.49,408.98 671.51,409.01 C671.55,409.07 671.57,409.15 671.57,409.23 C671.51,409.15 671.47,409.05 671.47,408.92 Z" fill="rgb(58,170,193)"/>
<path d="M 0.00 0.00 L 1064.00 0.00 L 1064.00 183.03 C1064.00,344.80 1063.83,366.13 1062.50,366.64 C1061.68,366.95 1061.00,368.29 1061.00,369.61 C1061.00,371.07 1061.58,372.00 1062.50,372.00 C1063.83,372.00 1064.00,406.72 1064.00,678.50 L 1064.00 985.00 L 0.00 985.00 ZM 448.56 584.98 C450.27,584.33 451.34,584.48 452.39,585.54 C453.20,586.34 455.13,586.94 456.68,586.86 C459.12,586.75 459.19,586.67 457.19,586.29 C456.74,586.20 456.38,586.11 456.12,586.01 C458.30,585.95 464.28,584.29 473.85,581.08 C490.41,575.52 509.84,569.47 517.94,567.35 C520.94,566.57 523.88,565.52 524.48,565.02 C525.62,564.07 558.43,554.00 560.38,554.00 C561.00,554.00 567.67,551.75 575.21,549.00 C575.34,548.95 575.48,548.90 575.61,548.85 L 580.75 548.93 C584.80,548.98 586.48,548.52 588.08,546.92 C589.23,545.77 589.98,544.65 589.76,544.42 C589.70,544.36 589.42,544.38 588.96,544.47 C590.09,544.17 590.89,544.00 591.24,544.00 C592.52,544.00 596.70,542.93 600.54,541.63 C608.82,538.81 616.92,536.11 624.68,533.60 C624.69,533.74 624.81,533.89 625.05,534.03 C626.44,534.89 631.67,533.35 632.63,531.79 C632.89,531.37 632.72,531.16 632.22,531.18 C645.71,526.89 657.96,523.22 668.08,520.45 C692.94,513.64 698.48,509.10 697.75,496.13 C697.41,490.13 697.14,489.52 693.23,485.88 C690.68,483.49 688.00,481.94 686.29,481.85 C684.99,481.78 683.99,481.68 682.99,481.68 C678.07,481.67 673.14,483.98 631.97,503.32 C629.22,504.61 626.31,505.98 623.23,507.42 C615.38,511.11 608.00,514.31 606.84,514.53 C605.68,514.75 604.00,515.56 603.11,516.32 C602.23,517.09 594.75,520.77 586.50,524.50 C581.45,526.79 575.23,529.64 569.87,532.12 C572.00,531.09 572.67,530.38 571.70,530.19 C569.78,529.81 566.00,531.69 566.00,533.02 C566.00,533.49 567.34,533.25 569.08,532.49 C566.01,533.91 563.26,535.20 561.25,536.15 C555.62,538.82 550.66,541.00 550.24,541.00 C549.83,541.00 547.24,542.20 544.49,543.67 C539.91,546.12 535.98,547.90 514.00,557.50 C509.88,559.31 501.55,563.12 495.50,565.98 C489.45,568.84 482.02,572.22 479.00,573.50 C470.88,576.93 457.36,583.56 455.69,584.92 C455.77,584.79 455.88,584.64 456.01,584.49 C456.80,583.53 456.83,582.56 456.10,581.20 C455.54,580.13 455.32,579.01 455.64,578.70 C455.95,578.39 455.91,577.67 455.56,577.09 C455.28,576.65 453.35,577.18 450.24,578.52 L 450.84 578.21 C462.20,572.46 473.98,566.30 477.00,564.52 C477.86,564.01 478.90,563.43 480.01,562.81 C480.26,563.27 484.60,562.89 485.50,562.23 C486.05,561.83 486.62,560.92 486.76,560.22 C486.88,559.62 486.60,559.44 485.74,559.72 C486.74,559.20 487.68,558.72 488.50,558.31 C492.73,556.21 497.89,553.61 503.38,550.82 C503.14,551.11 503.00,551.40 503.00,551.66 C503.00,553.68 506.79,553.27 507.93,551.13 C508.48,550.10 508.68,549.01 508.37,548.70 C508.26,548.59 508.10,548.53 507.92,548.50 C525.69,539.43 545.16,529.29 547.57,527.79 C548.04,527.49 549.39,526.76 551.36,525.74 C551.37,525.98 552.37,525.99 554.63,525.99 C558.23,526.00 558.83,525.68 559.24,523.54 C559.45,522.44 559.52,521.86 559.31,521.67 C562.35,520.12 565.77,518.41 569.28,516.65 C566.59,518.43 567.41,518.88 572.00,517.65 C574.71,516.93 575.88,516.13 575.54,515.23 C575.25,514.50 575.45,514.16 575.98,514.49 C577.28,515.29 582.62,512.44 583.34,510.57 C583.52,510.08 582.95,510.06 581.66,510.49 C589.29,506.73 595.78,503.58 598.00,502.61 C598.83,502.25 601.75,500.67 604.50,499.11 C605.69,498.42 607.86,497.27 610.48,495.91 C610.50,495.97 610.52,496.04 610.56,496.10 C611.46,497.55 614.73,497.13 615.36,495.50 C615.70,494.61 615.37,494.00 614.55,494.00 C614.42,494.00 614.29,494.00 614.17,494.01 C616.70,492.71 619.42,491.35 622.00,490.07 C628.88,486.67 640.58,480.59 648.00,476.55 C650.16,475.38 653.29,473.72 657.04,471.75 C656.04,472.44 655.47,472.96 655.59,473.14 C656.18,474.10 659.98,473.51 663.29,471.95 C664.82,471.23 665.87,470.10 665.62,469.44 C665.36,468.78 665.64,467.76 666.23,467.17 C666.40,467.00 666.34,466.96 666.10,467.02 C673.52,463.17 681.89,458.86 689.53,454.97 C688.83,455.51 688.47,455.95 688.61,456.18 C689.30,457.29 689.64,457.24 693.05,455.47 C694.67,454.64 696.00,453.48 696.00,452.92 C696.00,452.35 696.52,452.20 697.15,452.60 C697.86,453.03 698.04,452.87 697.62,452.19 C697.31,451.69 696.58,451.63 695.29,452.04 C709.62,444.72 724.89,436.82 731.00,433.54 C732.26,432.86 733.53,432.18 734.77,431.53 C732.64,432.76 731.03,433.85 731.02,434.25 C731.00,435.15 736.58,435.22 739.80,434.36 C741.31,433.95 742.30,432.75 742.68,430.87 C742.99,429.29 743.64,428.00 744.12,428.00 C744.61,428.00 745.00,427.54 745.00,426.98 C745.00,426.57 743.19,427.24 740.88,428.33 C743.60,426.92 745.69,425.88 746.50,425.53 C751.95,423.18 757.70,418.27 759.45,414.50 C759.50,414.89 759.94,415.00 760.86,415.00 C761.92,415.00 763.07,414.27 763.41,413.37 C763.75,412.48 763.61,411.23 763.09,410.60 C762.56,409.98 761.96,407.44 761.74,404.98 L 761.35 400.50 L 761.17 405.82 C761.08,408.58 760.59,411.64 760.06,412.87 C760.78,410.47 761.01,407.46 760.81,403.31 C760.52,397.32 760.06,395.69 757.98,393.47 C755.14,390.43 752.00,388.65 748.43,388.12 C750.07,388.32 751.44,388.63 751.95,388.95 C753.81,390.12 755.00,389.38 755.00,387.06 C755.00,386.05 754.21,385.05 753.25,384.83 C751.42,384.41 743.76,385.55 745.50,385.99 C746.05,386.12 745.15,386.58 743.50,387.00 C740.87,387.67 741.12,387.78 745.50,387.90 C745.95,387.91 746.41,387.93 746.86,387.96 C742.29,387.75 737.04,389.45 730.84,393.05 C722.78,397.73 702.92,409.84 683.47,421.83 C684.56,420.68 679.11,421.66 677.57,422.94 C676.76,423.62 675.29,423.91 674.30,423.59 C671.06,422.57 658.86,431.59 657.76,435.83 C657.37,437.30 657.56,437.79 658.34,437.35 C658.59,437.21 659.62,436.60 661.15,435.67 C654.35,439.92 648.38,443.68 644.00,446.48 C636.38,451.35 612.31,466.41 597.17,475.81 C600.66,473.35 601.16,472.38 598.50,473.00 C597.95,473.13 596.26,473.21 594.75,473.18 C593.24,473.16 591.99,473.67 591.97,474.32 C591.90,476.88 589.19,478.87 584.95,479.49 C579.89,480.23 576.06,482.35 575.88,484.52 C575.68,486.87 575.52,487.42 574.67,488.76 C574.23,489.46 576.03,488.74 578.68,487.16 C579.22,486.84 579.82,486.48 580.44,486.11 C576.83,488.35 572.68,490.96 569.50,493.00 C569.30,493.13 569.09,493.26 568.87,493.40 L 568.98 493.33 L 565.10 493.18 C561.19,493.02 558.82,494.61 558.37,497.69 C558.07,499.73 557.44,500.23 554.78,500.51 C550.65,500.94 550.49,501.02 551.99,501.97 C552.88,502.53 554.75,502.04 557.88,500.37 C543.26,509.59 521.45,523.25 512.29,528.90 C515.35,526.69 514.86,525.89 510.79,527.06 C507.45,528.02 504.37,530.44 502.83,533.31 C501.95,534.97 502.07,535.03 504.06,533.97 C504.33,533.83 504.68,533.63 505.09,533.39 C501.14,535.89 496.38,538.94 492.50,541.47 C488.52,544.07 481.33,548.64 473.89,553.31 C475.53,552.14 476.49,551.09 476.14,550.74 C474.95,549.55 472.80,550.76 470.14,554.11 L 467.78 557.09 L 470.48 555.45 C467.74,557.17 465.03,558.86 462.50,560.43 C456.49,564.15 450.74,567.75 446.67,570.30 C446.68,570.05 446.16,569.87 445.18,569.56 C445.04,569.51 444.90,569.46 444.77,569.41 C443.75,568.74 442.58,567.65 441.82,566.66 C441.45,565.82 441.38,564.93 441.68,564.12 C442.66,563.17 444.58,561.69 446.77,560.23 C449.95,558.12 453.89,555.40 455.53,554.19 C457.18,552.97 459.46,551.80 460.62,551.57 C460.74,551.55 460.87,551.52 461.00,551.49 C461.05,551.57 461.50,551.44 462.26,551.13 C464.64,550.35 467.71,548.84 470.58,547.12 C474.84,544.80 477.43,542.75 478.88,540.57 C480.44,538.23 482.04,537.00 483.52,537.00 C485.56,537.00 489.27,534.05 492.79,529.62 C493.50,528.73 494.98,528.00 496.09,528.00 C498.75,528.00 503.03,525.73 505.48,523.03 C506.56,521.83 509.77,519.75 512.60,518.41 C515.44,517.07 520.52,513.26 523.90,509.94 C527.28,506.62 530.42,504.14 530.89,504.43 C531.35,504.72 532.58,504.01 533.62,502.86 C534.65,501.71 537.75,499.76 540.50,498.53 C543.25,497.31 547.58,494.71 550.11,492.76 C552.65,490.81 555.68,488.92 556.84,488.55 C558.00,488.18 559.85,486.61 560.96,485.05 C562.91,482.31 569.26,479.04 572.77,478.96 C573.72,478.94 575.70,477.19 577.16,475.08 C579.03,472.38 581.25,470.71 584.66,469.46 C585.43,469.17 586.14,468.90 586.77,468.64 C591.11,466.90 592.00,465.91 592.01,463.63 C592.03,461.17 596.88,457.67 599.95,457.58 C600.57,458.13 601.45,458.12 602.61,457.55 C603.79,457.11 605.25,455.95 607.36,453.86 C609.06,452.17 610.57,450.72 611.89,449.49 C612.30,449.18 612.59,449.00 612.72,449.00 C613.16,449.00 614.13,448.02 614.87,446.83 L 614.90 446.79 C616.01,445.85 616.92,445.16 617.65,444.70 C618.05,444.68 618.77,444.40 619.58,443.97 C620.38,443.78 621.84,442.74 623.00,441.50 C624.29,440.13 626.10,439.01 627.04,439.00 L 627.05 439.00 L 627.05 439.00 C628.10,439.00 629.28,438.30 629.97,437.50 C630.73,436.81 631.13,436.11 630.54,435.99 C630.50,435.88 630.44,435.78 630.36,435.69 C630.30,435.63 630.15,435.65 629.92,435.72 C630.02,435.01 633.93,433.00 635.71,433.00 C636.72,433.00 637.62,432.60 638.31,431.87 C638.59,431.61 638.83,431.31 639.00,431.00 C639.19,430.65 639.32,430.34 639.41,430.09 C640.86,427.63 644.15,425.65 647.56,425.13 C648.08,425.14 648.70,425.09 649.34,425.00 C651.32,424.99 653.34,424.29 654.11,423.36 C654.86,422.46 657.28,420.95 659.49,420.00 C661.73,419.03 664.91,416.68 667.44,414.37 C670.09,412.02 672.10,409.77 671.59,409.26 C671.59,409.25 671.58,409.24 671.57,409.23 C671.57,409.15 671.55,409.07 671.51,409.01 C671.49,408.98 671.48,408.95 671.47,408.92 C671.46,408.81 671.48,408.69 671.51,408.55 C672.19,406.83 678.79,402.62 682.59,401.36 C683.13,401.26 683.72,401.14 684.34,401.00 C686.08,401.00 687.93,400.44 689.62,399.49 C690.05,399.32 690.41,399.16 690.63,399.02 C692.25,397.99 693.46,396.72 694.30,395.07 C694.34,394.99 694.39,394.92 694.43,394.85 C695.42,393.18 695.82,391.50 695.85,387.65 C695.88,386.92 695.88,386.15 695.87,385.35 C695.81,382.23 695.76,380.60 695.66,380.24 C695.54,377.80 695.35,375.66 695.13,373.94 C695.18,373.83 695.22,373.72 695.27,373.60 C695.78,372.35 695.47,371.08 694.37,369.85 C694.26,369.73 694.14,369.62 694.00,369.51 C693.69,369.15 693.11,368.81 692.39,368.55 C691.58,368.21 690.70,368.00 689.95,368.00 L 689.92 368.00 C689.65,367.97 689.39,367.96 689.13,367.96 C687.13,367.93 683.47,367.45 681.00,366.89 C679.45,366.54 678.14,366.25 677.03,366.01 C674.65,365.12 672.61,364.83 671.63,365.19 C671.12,365.26 671.00,365.49 671.00,365.85 C671.00,366.44 669.65,368.47 668.00,370.35 C666.35,372.23 665.00,374.45 665.00,375.29 C665.00,376.83 657.37,383.73 653.32,385.85 C652.75,386.15 652.05,386.42 651.35,386.62 L 649.82 386.96 C649.60,386.98 649.40,387.00 649.22,387.00 C648.25,387.00 646.56,387.76 645.31,388.75 C644.96,388.96 644.68,389.18 644.47,389.38 C644.38,389.48 644.28,389.57 644.18,389.66 C643.32,390.30 642.46,390.80 641.92,390.97 C641.82,390.99 641.73,391.00 641.65,391.00 C641.52,391.00 641.36,391.04 641.18,391.10 C639.78,391.52 637.34,393.71 633.79,397.77 C632.16,399.59 630.39,401.70 628.58,404.00 L 627.92 404.84 C623.90,409.68 622.68,410.45 620.65,410.08 C619.68,409.91 618.62,410.15 617.62,410.71 C617.28,410.75 616.99,410.80 616.78,410.84 C616.38,410.93 615.35,412.35 614.50,414.00 C613.65,415.65 612.33,417.00 611.58,417.00 C610.83,417.00 609.15,418.15 607.85,419.55 C606.56,420.95 603.82,422.98 601.77,424.06 C601.76,424.06 601.75,424.06 601.75,424.07 C599.47,425.27 597.45,427.33 596.33,429.59 C596.23,429.78 596.13,429.98 596.03,430.17 L 595.69 430.88 C594.50,433.11 593.51,433.62 590.45,434.04 C589.03,433.99 587.28,434.21 586.52,434.75 C586.06,434.87 585.77,434.98 585.70,435.06 C585.05,435.93 584.01,437.50 582.94,439.20 C581.88,440.75 580.82,442.44 580.09,443.83 C579.96,444.06 579.88,444.25 579.85,444.39 C579.33,445.33 579.00,446.00 579.00,446.17 C579.00,446.63 577.76,447.00 576.25,447.00 C575.75,447.00 575.23,447.07 574.68,447.18 C573.14,447.38 571.10,448.35 569.03,449.85 C567.63,450.83 566.26,452.02 565.00,453.38 C564.82,453.57 564.62,453.77 564.41,453.97 C562.80,455.40 560.75,456.82 559.37,457.43 C557.52,458.24 554.72,461.08 552.52,464.40 C549.76,468.56 548.20,470.00 546.45,470.00 C544.96,470.00 542.28,471.81 539.17,474.92 C536.13,477.97 533.19,479.97 531.47,480.17 C529.30,480.43 528.10,481.59 526.05,485.39 C524.03,489.16 522.20,490.94 518.10,493.13 C515.17,494.69 511.07,497.91 508.99,500.27 C506.91,502.64 502.73,505.79 499.70,507.27 C496.85,508.67 493.91,510.50 491.74,512.12 C489.44,513.84 487.98,515.31 488.42,515.76 C488.45,515.78 488.48,515.82 488.50,515.85 C488.70,516.19 488.36,517.22 487.71,518.30 C486.72,519.55 485.01,521.06 482.81,522.53 C480.44,524.12 476.25,527.28 473.50,529.56 C471.08,531.56 468.52,533.07 466.35,533.92 C463.28,535.12 461.00,535.03 461.00,533.21 C461.00,531.13 463.66,528.34 472.25,521.40 C475.41,518.85 478.00,516.43 478.00,516.04 C478.00,515.64 480.14,514.15 482.75,512.73 C485.36,511.30 490.72,506.96 494.66,503.07 C498.60,499.18 502.20,495.99 502.66,495.97 C503.90,495.93 510.72,489.40 511.98,487.04 C512.58,485.92 514.91,483.99 517.17,482.75 C519.43,481.51 522.18,479.97 523.29,479.33 C524.40,478.69 525.88,476.80 526.58,475.14 C527.28,473.49 529.12,471.46 530.67,470.64 C532.23,469.83 535.75,466.82 538.50,463.97 C541.25,461.12 545.39,457.97 547.69,456.96 C550.27,455.83 552.49,453.95 553.46,452.08 C554.33,450.40 556.29,448.39 557.82,447.59 C560.89,446.00 569.00,437.63 569.00,436.04 C569.00,435.49 570.73,434.16 572.84,433.08 C574.95,432.00 578.77,429.00 581.33,426.41 C583.88,423.82 586.81,421.20 587.84,420.60 C594.21,416.86 598.13,413.64 599.46,411.08 C600.30,409.46 601.86,407.86 602.93,407.52 C604.00,407.18 607.24,404.00 610.11,400.45 C613.02,396.87 616.14,394.00 617.14,394.00 C618.12,394.00 620.45,392.67 622.31,391.04 C624.16,389.40 626.89,387.61 628.36,387.05 C629.83,386.49 631.44,384.98 631.93,383.69 C633.08,380.66 633.57,364.19 632.60,361.23 C631.64,358.32 623.22,354.00 618.50,354.00 C616.54,354.00 613.49,354.64 611.72,355.42 C607.26,357.38 599.00,365.37 599.00,367.73 C599.00,370.35 592.87,378.06 588.95,380.37 C587.20,381.41 584.15,384.11 582.17,386.37 C580.19,388.64 576.19,392.76 573.28,395.52 C570.38,398.28 568.00,401.02 568.00,401.61 C568.00,402.20 565.74,404.89 562.99,407.59 C560.23,410.29 556.29,414.21 554.24,416.30 C552.18,418.38 549.22,420.86 547.65,421.80 C546.09,422.73 543.95,425.18 542.90,427.23 C541.84,429.28 539.70,431.62 538.14,432.43 C535.01,434.05 532.07,437.89 530.44,442.50 C529.70,444.58 527.87,446.28 524.46,448.06 C520.70,450.01 519.32,451.38 518.61,453.88 C518.01,455.94 515.51,459.03 511.83,462.23 C508.63,465.02 505.99,468.02 505.97,468.90 C505.93,471.17 500.41,476.96 497.20,478.09 C495.51,478.69 493.77,480.56 492.56,483.09 C491.49,485.32 489.69,487.63 488.56,488.23 C485.52,489.84 480.53,495.07 478.75,498.50 C477.89,500.15 475.80,502.53 474.10,503.78 C472.39,505.03 471.00,506.94 471.00,508.02 C471.00,509.21 469.45,510.96 467.00,512.50 C464.81,513.89 463.06,515.35 463.12,515.76 C463.49,518.11 462.55,519.20 458.51,521.10 C454.04,523.20 448.00,529.02 448.00,531.23 C448.00,531.85 446.88,533.53 445.49,535.01 C444.12,536.30 443.00,538.26 443.00,539.37 C443.00,540.48 441.83,542.62 440.39,544.11 C438.95,545.61 437.96,547.38 438.18,548.05 C438.42,548.76 441.22,547.03 445.04,543.79 C445.41,543.48 445.77,543.17 446.12,542.88 C446.47,542.77 447.52,541.96 448.75,540.81 C448.90,540.67 449.04,540.54 449.19,540.41 C452.17,538.09 454.39,536.68 455.94,536.16 C457.84,535.74 458.98,536.62 459.00,538.86 C458.98,540.51 457.82,542.46 454.88,545.41 C454.84,545.45 454.79,545.48 454.75,545.52 C453.29,546.79 452.50,547.54 452.40,547.76 C450.45,549.52 448.00,551.58 444.98,554.03 C441.10,557.16 438.62,558.83 436.59,559.55 L 435.02 559.78 C434.74,559.82 434.46,559.90 434.17,560.00 L 434.13 560.00 C433.13,560.00 431.55,561.23 430.24,562.74 C428.94,564.12 428.00,565.72 428.00,566.95 C428.00,567.58 429.10,569.19 430.44,570.53 C432.63,572.73 432.73,573.13 431.35,574.51 C430.51,575.35 429.70,577.14 429.55,578.48 L 429.28 580.92 L 430.53 580.21 C427.84,581.92 427.00,583.03 427.00,584.52 C427.00,585.83 427.71,587.30 428.59,587.79 C429.44,588.27 433.04,586.94 441.00,583.10 C438.22,584.66 436.42,585.88 436.60,586.17 C437.17,587.08 445.12,586.29 448.56,584.98 ZM 409.82 551.08 C410.61,548.81 410.54,548.04 409.47,547.63 C408.54,547.27 408.30,547.61 408.72,548.71 C409.14,549.80 408.95,550.09 408.15,549.59 C407.75,549.34 407.42,549.26 407.24,549.33 C415.83,534.19 424.02,519.82 426.26,516.00 C427.97,513.09 436.70,498.06 443.99,485.50 C448.66,477.45 466.43,446.23 471.98,436.33 C480.75,420.69 483.12,418.00 488.14,418.00 C493.86,418.00 495.36,419.13 501.13,427.78 C505.79,434.76 507.51,437.74 509.27,437.76 C510.46,437.78 511.66,436.47 513.79,434.15 C514.19,433.71 514.63,433.24 515.10,432.73 C518.29,429.31 520.93,425.54 520.96,424.38 C520.98,423.21 518.46,418.48 515.35,413.88 C513.53,411.18 511.92,408.81 510.45,406.73 C510.60,406.71 510.77,406.64 510.98,406.52 C511.54,406.17 512.00,405.26 512.00,404.50 C512.00,402.46 510.00,401.58 508.66,403.03 C508.45,403.26 508.30,403.44 508.19,403.58 C500.63,393.33 497.33,392.00 489.24,392.00 C480.93,392.00 474.04,395.60 469.41,402.36 C464.65,409.30 457.07,422.10 449.49,436.00 C444.45,445.24 420.29,487.88 412.38,501.50 C411.42,503.15 407.51,509.90 403.69,516.50 C399.87,523.10 395.18,531.20 393.26,534.50 C391.34,537.80 387.87,543.88 385.56,548.00 C383.24,552.12 376.10,564.60 369.70,575.72 C357.44,596.98 355.35,602.27 356.35,609.55 C358.05,621.95 366.95,630.04 379.89,630.96 C384.08,631.26 438.06,631.40 499.86,631.29 C612.09,631.07 612.22,631.07 616.60,628.95 C621.99,626.34 628.63,618.98 629.98,614.12 C632.22,606.06 630.92,601.44 621.80,585.07 C611.47,566.54 609.75,564.00 607.56,564.00 C605.67,564.00 590.87,567.88 590.12,568.57 C589.91,568.76 592.89,574.45 596.74,581.21 C607.91,600.85 608.46,602.40 605.97,607.06 C605.67,607.61 605.45,608.10 605.15,608.54 C602.77,612.01 595.35,612.00 504.55,612.00 C501.19,612.00 497.71,612.00 494.11,612.00 C429.46,612.00 388.16,611.63 386.61,611.04 C378.68,608.03 377.94,601.69 384.19,590.20 C386.13,586.63 395.75,569.60 405.36,552.64 C405.48,552.81 405.65,553.03 405.86,553.30 C407.55,555.38 408.51,554.84 409.82,551.08 ZM 636.74 450.93 C642.37,447.39 648.67,443.45 650.74,442.16 C652.81,440.87 653.60,440.13 652.50,440.51 C650.20,441.30 647.98,441.81 646.41,441.92 C645.80,441.97 644.13,443.01 642.69,444.25 C641.25,445.49 637.81,447.31 635.05,448.29 C632.29,449.27 629.56,450.95 628.99,452.02 C628.41,453.10 626.60,454.67 624.97,455.52 C623.34,456.36 622.00,457.77 622.00,458.64 C622.00,460.05 622.26,460.07 624.25,458.80 C625.49,458.01 631.11,454.47 636.74,450.93 ZM 708.82 406.17 C711.20,404.84 712.76,403.36 712.30,402.90 C711.08,401.68 704.00,404.07 704.00,405.70 C704.00,406.45 703.21,407.34 702.25,407.69 C699.51,408.66 697.97,410.14 698.60,411.17 C698.93,411.70 700.34,411.35 701.84,410.36 C703.30,409.39 706.45,407.51 708.82,406.17 ZM 735.36 390.53 L 740.22 388.06 L 737.65 386.89 C735.55,385.93 734.62,386.02 732.54,387.38 C731.14,388.30 730.00,389.94 730.00,391.02 C730.00,391.20 730.00,391.37 729.99,391.53 C729.98,392.16 729.98,392.56 730.17,392.72 C730.51,393.00 731.48,392.50 734.15,391.14 L 734.15 391.14 C734.52,390.95 734.92,390.75 735.36,390.53 ZM 548.34 506.17 C549.99,505.05 550.75,503.96 550.14,503.59 C548.09,502.32 544.47,504.15 542.21,507.59 L 539.92 511.09 L 542.71 509.59 C544.24,508.77 546.78,507.23 548.34,506.17 ZM 676.00 482.72 C676.83,482.41 675.89,482.12 673.92,482.08 C671.16,482.02 669.43,482.81 666.42,485.53 L 662.50 489.07 L 668.50 486.17 C671.80,484.58 675.17,483.03 676.00,482.72 ZM 354.59 600.51 C354.93,599.14 355.58,598.24 356.04,598.52 C356.49,598.80 357.12,598.62 357.43,598.12 C358.16,596.93 355.43,595.90 353.50,596.64 C351.85,597.27 351.38,603.00 352.98,603.00 C353.52,603.00 354.24,601.88 354.59,600.51 ZM 511.65 439.88 C512.39,439.26 513.00,438.29 513.00,437.72 C513.00,437.15 512.11,437.50 511.02,438.48 C509.40,439.94 508.76,440.04 507.53,439.02 C506.70,438.34 506.22,437.45 506.47,437.05 C506.71,436.66 506.26,436.33 505.46,436.33 C504.12,436.33 503.39,439.06 504.44,440.11 C505.42,441.09 510.38,440.93 511.65,439.88 ZM 356.25 615.76 C356.71,614.37 354.71,612.00 353.07,612.00 C351.57,612.00 351.73,615.72 353.25,616.34 C355.30,617.16 355.81,617.06 356.25,615.76 ZM 456.50 422.00 C456.16,421.45 456.26,421.00 456.73,421.00 C457.19,421.00 457.64,420.13 457.72,419.06 C457.82,417.75 457.40,417.29 456.43,417.66 C454.96,418.23 454.48,421.15 455.67,422.33 C456.67,423.34 457.20,423.13 456.50,422.00 ZM 613.92 465.30 C614.15,465.14 613.37,465.00 612.20,465.00 C611.03,465.00 609.57,465.93 608.96,467.07 C607.87,469.12 607.89,469.12 610.68,467.37 C612.23,466.40 613.69,465.47 613.92,465.30 ZM 433.30 462.34 C432.87,461.22 433.04,460.91 433.82,461.39 C434.58,461.86 434.77,461.57 434.38,460.55 C434.05,459.70 433.38,459.00 432.89,459.00 C431.86,459.00 431.68,462.35 432.67,463.33 C433.76,464.43 433.97,464.10 433.30,462.34 ZM 763.00 397.00 C763.00,394.63 761.47,394.34 760.62,396.55 C760.28,397.44 760.44,397.84 761.01,397.49 C761.56,397.16 762.00,397.36 762.00,397.94 C762.00,398.52 762.22,399.00 762.50,399.00 C762.78,399.00 763.00,398.10 763.00,397.00 ZM 586.00 523.89 C586.00,522.46 584.26,522.87 583.66,524.45 C583.29,525.42 583.58,525.71 584.55,525.34 C585.35,525.04 586.00,524.38 586.00,523.89 ZM 497.00 424.00 C497.00,423.45 496.55,423.00 496.00,423.00 C495.45,423.00 495.00,423.45 495.00,424.00 C495.00,424.55 495.45,425.00 496.00,425.00 C496.55,425.00 497.00,424.55 497.00,424.00 ZM 508.35 403.80 C508.46,403.75 508.59,403.68 508.75,403.59 C509.87,402.95 510.46,404.10 510.11,406.24 C509.50,405.38 508.91,404.56 508.35,403.80 ZM 407.09 549.60 C407.09,549.62 407.09,549.65 407.09,549.68 C407.48,551.89 406.90,553.06 405.75,552.37 C405.69,552.33 405.63,552.30 405.57,552.27 C406.08,551.38 406.58,550.49 407.09,549.60 ZM 440.00 574.46 C440.77,573.84 442.56,572.73 444.11,571.92 C442.50,572.94 441.40,573.64 441.00,573.92 C440.44,574.30 439.50,574.89 438.37,575.58 C439.11,575.10 439.69,574.70 440.00,574.46 Z" fill="rgb(29,36,53)"/>
<path d="M 473.85 581.08 C464.28,584.29 458.30,585.95 456.12,586.01 C455.48,585.77 455.37,585.45 455.69,584.92 C457.36,583.56 470.88,576.93 479.00,573.50 C482.02,572.22 489.45,568.84 495.50,565.98 C501.55,563.12 509.88,559.31 514.00,557.50 C535.98,547.90 539.91,546.12 544.49,543.67 C547.24,542.20 549.83,541.00 550.24,541.00 C550.66,541.00 555.62,538.82 561.25,536.15 C563.26,535.20 566.01,533.91 569.08,532.49 C569.26,532.41 569.45,532.33 569.64,532.23 C569.72,532.20 569.80,532.16 569.87,532.12 C575.23,529.64 581.45,526.79 586.50,524.50 C594.75,520.77 602.23,517.09 603.11,516.32 C604.00,515.56 605.68,514.75 606.84,514.53 C608.00,514.31 615.38,511.11 623.23,507.42 C626.31,505.98 629.22,504.61 631.97,503.32 C673.14,483.98 678.07,481.67 682.99,481.68 C683.99,481.68 684.99,481.78 686.29,481.85 C688.00,481.94 690.68,483.49 693.23,485.88 C697.14,489.52 697.41,490.13 697.75,496.13 C698.48,509.10 692.94,513.64 668.08,520.45 C657.96,523.22 645.71,526.89 632.22,531.18 C632.00,531.19 631.72,531.24 631.38,531.35 C630.34,531.65 628.22,532.21 626.65,532.58 C625.32,532.90 624.65,533.25 624.68,533.60 C616.92,536.11 608.82,538.81 600.54,541.63 C596.70,542.93 592.52,544.00 591.24,544.00 C590.89,544.00 590.09,544.17 588.96,544.47 C587.73,544.71 585.21,545.46 582.42,546.43 L 575.50 548.85 L 575.61 548.85 C575.48,548.90 575.34,548.95 575.21,549.00 C567.67,551.75 561.00,554.00 560.38,554.00 C558.43,554.00 525.62,564.07 524.48,565.02 C523.88,565.52 520.94,566.57 517.94,567.35 C509.84,569.47 490.41,575.52 473.85,581.08 Z" fill="rgb(122,75,123)"/>
<path d="M 671.00 429.70 C677.33,425.85 682.89,422.35 683.38,421.92 C683.41,421.89 683.44,421.86 683.47,421.83 C702.92,409.84 722.78,397.73 730.84,393.05 C737.04,389.45 742.29,387.75 746.86,387.96 C747.40,388.00 747.93,388.05 748.43,388.12 C752.00,388.65 755.14,390.43 757.98,393.47 C760.06,395.69 760.52,397.32 760.81,403.31 C761.01,407.46 760.78,410.47 760.06,412.87 C760.03,412.94 760.00,413.01 759.96,413.07 C759.60,413.75 759.42,414.20 759.45,414.50 C757.70,418.27 751.95,423.18 746.50,425.53 C745.69,425.88 743.60,426.92 740.88,428.33 C738.94,429.24 736.65,430.44 734.77,431.53 C733.53,432.18 732.26,432.86 731.00,433.54 C724.89,436.82 709.62,444.72 695.29,452.04 C694.55,452.27 693.64,452.66 692.51,453.21 C691.29,453.80 690.24,454.43 689.53,454.97 C681.89,458.86 673.52,463.17 666.10,467.02 C665.49,467.17 663.65,468.01 661.24,469.28 C659.55,470.16 658.06,471.05 657.04,471.75 C653.29,473.72 650.16,475.38 648.00,476.55 C640.58,480.59 628.88,486.67 622.00,490.07 C619.42,491.35 616.70,492.71 614.17,494.01 C612.12,494.12 610.30,495.06 610.48,495.91 C607.86,497.27 605.69,498.42 604.50,499.11 C601.75,500.67 598.83,502.25 598.00,502.61 C595.78,503.58 589.29,506.73 581.66,510.49 C580.35,510.93 578.29,511.85 575.52,513.22 C572.65,514.64 570.56,515.80 569.28,516.65 C565.77,518.41 562.35,520.12 559.31,521.67 C559.09,521.47 558.57,521.70 557.60,522.22 C556.45,522.85 554.38,523.95 553.00,524.67 C551.94,525.23 551.35,525.55 551.36,525.74 C549.39,526.76 548.04,527.49 547.57,527.79 C545.16,529.29 525.69,539.43 507.92,548.50 C506.76,548.36 504.32,549.64 503.38,550.82 C497.89,553.61 492.73,556.21 488.50,558.31 C487.68,558.72 486.74,559.20 485.74,559.72 C485.27,559.87 484.62,560.16 483.76,560.60 C481.97,561.51 480.31,562.42 480.08,562.63 C480.01,562.70 479.98,562.76 480.01,562.81 C478.90,563.43 477.86,564.01 477.00,564.52 C473.98,566.30 462.20,572.46 450.84,578.21 L 450.24 578.52 C448.88,579.10 447.29,579.84 445.52,580.72 C443.86,581.55 442.32,582.36 441.00,583.10 C433.04,586.94 429.44,588.27 428.59,587.79 C427.71,587.30 427.00,585.83 427.00,584.52 C427.00,583.03 427.84,581.92 430.53,580.21 L 433.89 578.29 C435.48,577.39 437.14,576.37 438.37,575.58 C439.50,574.89 440.44,574.30 441.00,573.92 C441.40,573.64 442.50,572.94 444.11,571.92 C444.22,571.86 444.33,571.81 444.43,571.75 C445.95,570.98 446.66,570.59 446.67,570.30 C450.74,567.75 456.49,564.15 462.50,560.43 C465.03,558.86 467.74,557.17 470.48,555.46 L 470.48 555.45 L 472.36 554.32 C472.92,553.98 473.43,553.64 473.89,553.31 C481.33,548.64 488.52,544.07 492.50,541.47 C496.38,538.94 501.14,535.89 505.09,533.39 C506.55,532.55 508.75,531.21 510.61,530.03 C511.25,529.62 511.81,529.25 512.29,528.90 C521.45,523.25 543.26,509.59 557.88,500.37 C559.93,499.27 562.53,497.66 565.74,495.50 L 568.87 493.40 C569.09,493.26 569.30,493.13 569.50,493.00 C572.68,490.96 576.83,488.35 580.44,486.11 C582.87,484.66 585.75,482.95 587.50,481.91 C591.81,479.34 595.05,477.30 597.17,475.81 C612.31,466.41 636.38,451.35 644.00,446.48 C648.38,443.68 654.35,439.92 661.15,435.67 C663.54,434.23 667.15,432.04 671.00,429.70 Z" fill="rgb(136,160,207)"/>
<path d="M 379.89 630.96 C366.95,630.04 358.05,621.95 356.35,609.55 C355.35,602.27 357.44,596.98 369.70,575.72 C376.10,564.60 383.24,552.12 385.56,548.00 C387.87,543.88 391.34,537.80 393.26,534.50 C395.18,531.20 399.87,523.10 403.69,516.50 C407.51,509.90 411.42,503.15 412.38,501.50 C420.29,487.88 444.45,445.24 449.49,436.00 C457.07,422.10 464.65,409.30 469.41,402.36 C474.04,395.60 480.93,392.00 489.24,392.00 C499.50,392.00 502.05,394.14 515.35,413.88 C518.46,418.48 520.98,423.21 520.96,424.38 C520.93,425.54 518.29,429.31 515.10,432.73 C508.38,439.93 509.51,440.34 501.13,427.78 C495.36,419.13 493.86,418.00 488.14,418.00 C483.12,418.00 480.75,420.69 471.98,436.33 C466.43,446.23 448.66,477.45 443.99,485.50 C436.70,498.06 427.97,513.09 426.26,516.00 C421.36,524.35 387.99,583.20 384.19,590.20 C377.94,601.69 378.68,608.03 386.61,611.04 C388.16,611.63 429.46,612.00 494.11,612.00 C607.03,612.00 603.23,612.17 605.97,607.06 C608.46,602.40 607.91,600.85 596.74,581.21 C592.89,574.45 589.91,568.76 590.12,568.57 C590.87,567.88 605.67,564.00 607.56,564.00 C609.75,564.00 611.47,566.54 621.80,585.07 C630.92,601.44 632.22,606.06 629.98,614.12 C628.63,618.98 621.99,626.34 616.60,628.95 C612.22,631.07 612.09,631.07 499.86,631.29 C438.06,631.40 384.08,631.26 379.89,630.96 Z" fill="rgb(249,250,245)"/>
</g>
</svg>