<svg xmlns="http://www.w3.org/2000/svg" width="1290" height="813" viewBox="0 0 1290 813">
<g>
<path d="M 694.50 592.01 C681.21,593.06 620.13,594.04 607.50,593.41 C551.90,590.63 507.41,584.44 464.00,573.45 C456.58,571.57 449.38,569.74 448.00,569.40 C429.36,564.71 393.14,552.09 368.79,541.80 C342.59,530.73 304.83,510.17 283.50,495.38 C265.96,483.21 265.85,483.11 266.19,480.27 C266.56,477.15 269.46,475.29 291.50,464.04 C338.53,440.03 395.77,420.91 456.00,409.08 C517.83,396.94 598.56,389.94 659.50,391.44 C793.15,394.73 915.89,422.35 1013.02,471.01 C1026.27,477.65 1027.11,478.24 1026.81,480.74 C1026.56,482.87 1024.70,484.55 1017.50,489.16 C1001.18,499.60 975.70,513.81 958.46,522.08 C876.26,561.54 789.63,584.49 694.50,592.01 ZM 606.50 585.96 C629.69,586.87 663.16,586.44 687.00,584.92 C701.34,584.01 753.93,578.55 758.50,577.51 C762.85,576.51 777.55,550.51 782.33,535.37 C787.06,520.37 788.40,510.86 788.38,492.50 C788.36,473.48 786.49,462.00 780.91,446.56 C775.10,430.51 762.10,407.84 757.60,405.93 C753.56,404.21 684.00,399.03 684.00,400.45 C684.00,400.87 685.24,402.17 686.75,403.34 C700.74,414.17 711.16,429.88 716.17,447.71 C719.46,459.40 719.24,478.37 715.69,489.74 C707.19,516.90 688.04,536.64 661.55,545.52 C646.61,550.53 623.57,550.01 609.28,544.35 C583.13,533.99 564.62,513.39 557.92,487.18 C555.47,477.61 555.35,461.02 557.65,450.53 C559.33,442.90 560.36,441.41 561.49,444.96 C562.40,447.83 570.60,454.71 574.73,456.08 C579.94,457.80 588.46,456.63 593.10,453.55 C605.08,445.62 606.48,428.08 595.89,418.52 C591.34,414.41 588.25,413.01 583.68,412.98 C577.23,412.95 577.37,411.57 584.39,405.94 C588.02,403.03 591.00,400.45 591.00,400.21 C591.00,399.11 526.84,404.89 525.34,406.14 C523.18,407.93 513.18,423.46 509.67,430.50 C504.96,439.93 499.54,454.85 497.50,464.00 C494.97,475.35 494.36,504.03 496.39,515.72 C499.70,534.77 507.02,553.19 517.79,569.60 L 523.75 578.68 L 538.13 580.35 C564.85,583.44 585.41,585.12 606.50,585.96 ZM 772.00 574.62 C772.00,574.85 773.01,574.81 774.25,574.53 C775.49,574.24 783.03,572.69 791.00,571.07 C866.33,555.75 942.70,526.39 1003.75,489.27 C1010.49,485.17 1016.00,481.49 1016.00,481.10 C1016.00,480.33 996.60,470.82 981.08,464.00 C937.20,444.68 884.62,428.51 829.78,417.46 C811.11,413.70 776.01,408.00 771.52,408.00 C770.56,408.00 771.97,411.11 775.71,417.25 C794.20,447.55 801.02,486.42 793.97,521.22 C790.30,539.29 785.15,552.56 775.86,567.85 C773.74,571.34 772.00,574.39 772.00,574.62 ZM 484.00 570.54 C496.92,573.46 508.73,575.89 510.24,575.93 L 512.98 576.00 L 509.62 570.75 C500.54,556.53 492.86,536.88 489.40,519.00 C486.69,504.95 486.92,479.09 489.88,465.14 C493.86,446.40 501.33,427.90 510.31,414.52 C512.86,410.72 514.84,407.52 514.72,407.42 C514.06,406.85 473.71,413.47 456.85,416.90 C400.10,428.47 355.08,442.51 314.00,461.47 C297.55,469.07 275.99,480.12 276.01,480.95 C276.04,481.83 307.46,502.16 319.00,508.75 C348.30,525.50 382.21,540.42 418.28,552.43 C441.61,560.19 456.73,564.36 484.00,570.54 ZM 342.71 258.10 C335.17,263.56 325.51,260.93 319.34,251.76 C312.86,242.10 308.32,214.54 309.34,191.06 C310.74,158.69 316.11,138.00 323.11,138.00 C326.11,138.00 327.00,141.97 327.01,155.32 C327.02,181.11 333.17,205.86 344.63,226.18 C350.68,236.91 352.36,241.47 351.62,245.16 C350.69,249.79 347.22,254.83 342.71,258.10 ZM 736.19 172.37 C729.65,176.90 721.79,175.08 715.15,167.52 C710.66,162.40 710.78,156.46 715.58,145.81 C719.83,136.40 724.52,118.53 726.11,105.70 C726.84,99.78 726.98,91.68 726.49,83.00 C726.40,81.41 726.32,79.93 726.24,78.57 C725.49,65.26 725.32,62.28 726.53,61.53 C727.01,61.24 727.69,61.29 728.64,61.19 C731.18,60.95 732.20,61.47 733.94,63.92 C741.18,74.08 749.15,116.54 747.57,136.50 C745.80,158.88 743.02,167.63 736.19,172.37 ZM 1056.38 306.87 C1050.50,310.77 1045.45,310.92 1038.71,307.41 C1030.47,303.12 1027.95,295.93 1031.96,288.07 C1034.15,283.78 1037.25,281.15 1050.88,272.04 C1067.25,261.10 1083.16,243.74 1096.92,221.80 C1101.25,214.89 1104.02,212.94 1106.55,215.04 C1110.31,218.16 1106.05,232.19 1093.98,256.50 C1082.74,279.13 1067.56,299.47 1056.38,306.87 ZM 901.60 227.39 C897.64,229.27 896.67,229.30 892.09,227.69 C887.52,226.09 884.81,222.16 884.27,216.32 C883.76,210.79 883.80,210.72 896.50,195.70 C906.44,183.95 911.87,173.85 917.41,156.83 C921.94,142.89 923.95,139.93 926.55,143.42 C927.33,144.48 928.28,146.96 928.65,148.92 C929.38,152.81 927.77,168.06 925.36,180.00 C921.16,200.83 909.79,223.50 901.60,227.39 ZM 214.36 348.62 C210.08,350.41 208.26,350.31 203.97,348.04 C199.14,345.49 186.51,332.07 180.70,323.31 C174.47,313.92 164.28,292.30 162.50,284.68 C160.98,278.14 161.82,274.63 164.78,275.20 C165.69,275.37 170.01,280.69 174.40,287.01 C184.09,301.00 195.83,312.92 206.43,319.54 C210.79,322.27 216.08,326.13 218.18,328.13 C221.61,331.39 222.00,332.27 222.00,336.75 C222.00,342.58 219.50,346.48 214.36,348.62 ZM 528.33 178.64 C526.48,179.41 525.50,179.83 524.50,179.85 C523.32,179.88 522.13,179.33 519.49,178.13 L 519.31 178.05 C514.19,175.73 511.80,171.48 509.58,160.74 C506.96,148.06 507.48,131.15 511.03,113.65 C514.04,98.78 514.93,96.02 517.78,92.75 C519.49,90.79 523.52,90.41 524.57,92.11 C524.94,92.71 524.67,98.69 523.97,105.39 C522.86,115.98 522.90,118.80 524.30,127.03 C526.16,138.00 529.88,149.67 534.06,157.62 C537.86,164.85 537.93,169.74 534.30,174.06 C532.81,175.83 530.12,177.89 528.33,178.64 Z" fill="rgb(5,5,6)"/>
<path d="M 681.50 714.98 C670.57,715.89 636.75,716.10 624.50,715.33 C606.05,714.16 584.01,710.80 559.89,705.44 C504.24,693.10 446.23,670.30 387.09,637.53 C290.30,583.88 222.00,518.65 222.00,479.85 C222.00,460.49 242.54,427.45 274.48,395.45 C324.23,345.59 399.70,294.36 470.00,262.72 C555.09,224.43 635.61,212.41 715.50,226.07 C760.73,233.81 810.47,250.80 859.50,275.26 C887.14,289.06 924.44,311.26 947.00,327.34 C1020.21,379.54 1065.62,427.17 1078.64,465.43 C1084.30,482.05 1078.92,501.30 1062.39,523.50 C1050.61,539.33 1021.37,567.23 997.41,585.50 C988.01,592.67 965.91,608.29 961.00,611.24 C959.08,612.39 953.00,616.12 947.50,619.52 C938.51,625.08 924.96,632.90 908.75,641.88 C905.59,643.63 895.69,648.71 886.75,653.17 C817.70,687.66 744.38,709.74 681.50,714.98 ZM 622.50 706.90 C653.11,709.40 697.51,706.61 725.50,700.43 C798.05,684.41 854.87,662.46 919.50,625.46 C947.29,609.56 949.34,608.31 961.73,599.75 C996.10,576.02 1014.46,561.31 1033.53,542.22 C1045.33,530.41 1059.00,515.11 1059.00,513.72 C1059.00,513.48 1061.18,509.50 1063.84,504.87 C1074.25,486.78 1075.31,477.32 1068.55,462.78 C1064.56,454.21 1055.81,439.38 1051.50,433.89 C1049.30,431.08 1045.34,426.05 1042.70,422.70 C1034.17,411.89 1010.63,388.35 997.50,377.50 C994.17,374.75 990.78,371.93 989.97,371.24 C984.23,366.32 971.97,356.42 969.42,354.64 C966.29,352.47 946.34,337.72 944.50,336.22 C940.52,332.98 914.65,316.15 906.50,311.50 C901.00,308.36 895.79,305.17 894.92,304.40 C894.05,303.63 893.03,303.00 892.65,303.00 C892.27,303.00 890.28,301.95 888.23,300.66 C875.57,292.72 829.24,270.01 812.50,263.54 C808.65,262.06 800.55,258.88 794.50,256.49 C788.45,254.11 777.88,250.51 771.00,248.51 C764.12,246.51 754.22,243.59 749.00,242.01 C733.73,237.40 701.49,231.90 678.12,229.93 C645.17,227.15 592.86,231.46 563.27,239.40 C528.85,248.64 517.46,252.05 514.50,254.00 C513.95,254.36 511.25,255.45 508.50,256.42 C505.75,257.39 502.08,258.82 500.35,259.59 C498.62,260.37 496.63,261.00 495.94,261.00 C494.77,261.00 487.63,264.11 469.00,272.72 C450.18,281.41 419.10,297.64 410.00,303.52 C406.42,305.83 401.70,308.69 399.50,309.88 C393.69,313.00 376.54,323.95 369.00,329.35 C365.42,331.91 359.58,336.04 356.00,338.52 C335.00,353.10 327.32,359.19 297.70,384.77 C290.19,391.26 276.22,405.24 265.21,417.31 C246.76,437.51 230.00,467.33 230.00,479.96 C230.00,488.24 237.92,505.99 247.04,518.16 C258.23,533.08 282.63,556.42 305.12,573.71 C320.38,585.44 323.29,587.52 339.26,598.12 C347.64,603.69 355.68,609.06 357.12,610.06 C359.87,611.95 389.32,629.01 398.92,634.26 C414.04,642.53 446.57,658.63 455.00,662.03 C460.23,664.13 470.36,668.29 477.52,671.28 C484.68,674.26 495.25,678.15 501.02,679.92 C506.78,681.69 514.33,684.25 517.78,685.62 C537.09,693.22 592.24,704.43 622.50,706.90 ZM 606.50 585.96 C585.41,585.12 564.85,583.44 538.13,580.35 L 523.75 578.68 L 517.79 569.60 C507.02,553.19 499.70,534.77 496.39,515.72 C494.36,504.03 494.97,475.35 497.50,464.00 C499.54,454.85 504.96,439.93 509.67,430.50 C513.18,423.46 523.18,407.93 525.34,406.14 C526.84,404.89 591.00,399.11 591.00,400.21 C591.00,400.45 588.02,403.03 584.39,405.94 C577.37,411.57 577.23,412.95 583.68,412.98 C586.32,413.00 588.46,413.47 590.68,414.66 C588.27,413.40 585.85,413.00 582.30,413.00 C565.11,413.00 554.12,428.65 560.86,443.51 L 560.87 443.52 C559.96,442.17 559.02,444.31 557.65,450.53 C555.35,461.02 555.47,477.61 557.92,487.18 C564.62,513.39 583.13,533.99 609.28,544.35 C623.57,550.01 646.61,550.53 661.55,545.52 C688.04,536.64 707.19,516.90 715.69,489.74 C719.24,478.37 719.46,459.40 716.17,447.71 C711.16,429.88 700.74,414.17 686.75,403.34 C685.24,402.17 684.00,400.87 684.00,400.45 C684.00,399.03 753.56,404.21 757.60,405.93 C762.10,407.84 775.10,430.51 780.91,446.56 C786.49,462.00 788.36,473.48 788.38,492.50 C788.40,510.86 787.06,520.37 782.33,535.37 C777.55,550.51 762.85,576.51 758.50,577.51 C753.93,578.55 701.34,584.01 687.00,584.92 C663.16,586.44 629.69,586.87 606.50,585.96 ZM 561.25 444.29 C562.28,446.21 563.95,448.30 565.88,450.20 C563.66,448.22 561.88,446.21 561.49,444.96 C561.41,444.71 561.33,444.49 561.25,444.29 ZM 576.65 456.56 C581.24,457.29 587.45,456.45 591.55,454.44 C587.35,456.53 581.24,457.39 576.65,456.56 Z" fill="rgb(49,208,234)"/>
<path d="M 622.50 706.90 C592.24,704.43 537.09,693.22 517.78,685.62 C514.33,684.25 506.78,681.69 501.02,679.92 C495.25,678.15 484.68,674.26 477.52,671.28 C470.36,668.29 460.23,664.13 455.00,662.03 C446.57,658.63 414.04,642.53 398.92,634.26 C389.32,629.01 359.87,611.95 357.12,610.06 C355.68,609.06 347.64,603.69 339.26,598.12 C323.29,587.52 320.38,585.44 305.12,573.71 C282.63,556.42 258.23,533.08 247.04,518.16 C237.92,505.99 230.00,488.24 230.00,479.96 C230.00,467.33 246.76,437.51 265.21,417.31 C276.22,405.24 290.19,391.26 297.70,384.77 C327.32,359.19 335.00,353.10 356.00,338.52 C359.58,336.04 365.42,331.91 369.00,329.35 C376.54,323.95 393.69,313.00 399.50,309.88 C401.70,308.69 406.42,305.83 410.00,303.52 C419.10,297.64 450.18,281.41 469.00,272.72 C487.63,264.11 494.77,261.00 495.94,261.00 C496.63,261.00 498.62,260.37 500.35,259.59 C502.08,258.82 505.75,257.39 508.50,256.42 C511.25,255.45 513.95,254.36 514.50,254.00 C517.46,252.05 528.85,248.64 563.27,239.40 C592.86,231.46 645.17,227.15 678.12,229.93 C701.49,231.90 733.73,237.40 749.00,242.01 C754.22,243.59 764.12,246.51 771.00,248.51 C777.88,250.51 788.45,254.11 794.50,256.49 C800.55,258.88 808.65,262.06 812.50,263.54 C829.24,270.01 875.57,292.72 888.23,300.66 C890.28,301.95 892.27,303.00 892.65,303.00 C893.03,303.00 894.05,303.63 894.92,304.40 C895.79,305.17 901.00,308.36 906.50,311.50 C914.65,316.15 940.52,332.98 944.50,336.22 C946.34,337.72 966.29,352.47 969.42,354.64 C971.97,356.42 984.23,366.32 989.97,371.24 C990.78,371.93 994.17,374.75 997.50,377.50 C1010.63,388.35 1034.17,411.89 1042.70,422.70 C1045.34,426.05 1049.30,431.08 1051.50,433.89 C1055.81,439.38 1064.56,454.21 1068.55,462.78 C1075.31,477.32 1074.25,486.78 1063.84,504.87 C1061.18,509.50 1059.00,513.48 1059.00,513.72 C1059.00,515.11 1045.33,530.41 1033.53,542.22 C1014.46,561.31 996.10,576.02 961.73,599.75 C949.34,608.31 947.29,609.56 919.50,625.46 C854.87,662.46 798.05,684.41 725.50,700.43 C697.51,706.61 653.11,709.40 622.50,706.90 ZM 694.50 592.01 C789.63,584.49 876.26,561.54 958.46,522.08 C975.70,513.81 1001.18,499.60 1017.50,489.16 C1024.70,484.55 1026.56,482.87 1026.81,480.74 C1027.11,478.24 1026.27,477.65 1013.02,471.01 C915.89,422.35 793.15,394.73 659.50,391.44 C598.56,389.94 517.83,396.94 456.00,409.08 C395.77,420.91 338.53,440.03 291.50,464.04 C269.46,475.29 266.56,477.15 266.19,480.27 C265.85,483.11 265.96,483.21 283.50,495.38 C304.83,510.17 342.59,530.73 368.79,541.80 C393.14,552.09 429.36,564.71 448.00,569.40 C449.38,569.74 456.58,571.57 464.00,573.45 C507.41,584.44 551.90,590.63 607.50,593.41 C620.13,594.04 681.21,593.06 694.50,592.01 Z" fill="rgb(162,184,237)"/>
<path d="M 0.00 406.50 L 0.00 0.00 L 645.00 0.00 L 1290.00 0.00 L 1290.00 406.50 L 1290.00 813.00 L 645.00 813.00 L 0.00 813.00 L 0.00 406.50 ZM 681.50 714.98 C744.38,709.74 817.70,687.66 886.75,653.17 C895.69,648.71 905.59,643.63 908.75,641.88 C924.96,632.90 938.51,625.08 947.50,619.52 C953.00,616.12 959.08,612.39 961.00,611.24 C965.91,608.29 988.01,592.67 997.41,585.50 C1021.37,567.23 1050.61,539.33 1062.39,523.50 C1078.92,501.30 1084.30,482.05 1078.64,465.43 C1065.62,427.17 1020.21,379.54 947.00,327.34 C924.44,311.26 887.14,289.06 859.50,275.26 C810.47,250.80 760.73,233.81 715.50,226.07 C635.61,212.41 555.09,224.43 470.00,262.72 C399.70,294.36 324.23,345.59 274.48,395.45 C242.54,427.45 222.00,460.49 222.00,479.85 C222.00,518.65 290.30,583.88 387.09,637.53 C446.23,670.30 504.24,693.10 559.89,705.44 C584.01,710.80 606.05,714.16 624.50,715.33 C636.75,716.10 670.57,715.89 681.50,714.98 ZM 214.36 348.62 C219.50,346.48 222.00,342.58 222.00,336.75 C222.00,332.27 221.61,331.39 218.18,328.13 C216.08,326.13 210.79,322.27 206.43,319.54 C195.83,312.92 184.09,301.00 174.40,287.01 C170.01,280.69 165.69,275.37 164.78,275.20 C161.82,274.63 160.98,278.14 162.50,284.68 C164.28,292.30 174.47,313.92 180.70,323.31 C186.51,332.07 199.14,345.49 203.97,348.04 C208.26,350.31 210.08,350.41 214.36,348.62 ZM 1056.38 306.87 C1067.56,299.47 1082.74,279.13 1093.98,256.50 C1106.05,232.19 1110.31,218.16 1106.55,215.04 C1104.02,212.94 1101.25,214.89 1096.92,221.80 C1083.16,243.74 1067.25,261.10 1050.88,272.04 C1037.25,281.15 1034.15,283.78 1031.96,288.07 C1027.95,295.93 1030.47,303.12 1038.71,307.41 C1045.45,310.92 1050.50,310.77 1056.38,306.87 ZM 342.71 258.10 C347.22,254.83 350.69,249.79 351.62,245.16 C352.36,241.47 350.68,236.91 344.63,226.18 C333.17,205.86 327.02,181.11 327.01,155.32 C327.00,141.97 326.11,138.00 323.11,138.00 C316.11,138.00 310.74,158.69 309.34,191.06 C308.32,214.54 312.86,242.10 319.34,251.76 C325.51,260.93 335.17,263.56 342.71,258.10 ZM 901.60 227.39 C909.79,223.50 921.16,200.83 925.36,180.00 C927.77,168.06 929.38,152.81 928.65,148.92 C928.28,146.96 927.33,144.48 926.55,143.42 C923.95,139.93 921.94,142.89 917.41,156.83 C911.87,173.85 906.44,183.95 896.50,195.70 C883.80,210.72 883.76,210.79 884.27,216.32 C884.81,222.16 887.52,226.09 892.09,227.69 C896.67,229.30 897.64,229.27 901.60,227.39 ZM 528.33 178.64 C530.12,177.89 532.81,175.83 534.30,174.06 C537.93,169.74 537.86,164.85 534.06,157.62 C529.88,149.67 526.16,138.00 524.30,127.03 C522.90,118.80 522.86,115.98 523.97,105.39 C524.67,98.69 524.94,92.71 524.57,92.11 C523.52,90.41 519.49,90.79 517.78,92.75 C514.93,96.02 514.04,98.78 511.03,113.65 C507.48,131.15 506.96,148.06 509.58,160.74 C511.80,171.48 514.19,175.73 519.31,178.05 C524.36,180.35 524.25,180.34 528.33,178.64 ZM 736.19 172.37 C743.02,167.63 745.80,158.88 747.57,136.50 C749.15,116.54 741.18,74.08 733.94,63.92 C732.20,61.47 731.18,60.95 728.64,61.19 C725.03,61.55 725.20,59.82 726.49,83.00 C726.98,91.68 726.84,99.78 726.11,105.70 C724.52,118.53 719.83,136.40 715.58,145.81 C710.78,156.46 710.66,162.40 715.15,167.52 C721.79,175.08 729.65,176.90 736.19,172.37 ZM 484.00 570.54 C456.73,564.36 441.61,560.19 418.28,552.43 C382.21,540.42 348.30,525.50 319.00,508.75 C307.46,502.16 276.04,481.83 276.01,480.95 C275.99,480.12 297.55,469.07 314.00,461.47 C355.08,442.51 400.10,428.47 456.85,416.90 C473.71,413.47 514.06,406.85 514.72,407.42 C514.84,407.52 512.86,410.72 510.31,414.52 C501.33,427.90 493.86,446.40 489.88,465.14 C486.92,479.09 486.69,504.95 489.40,519.00 C492.86,536.88 500.54,556.53 509.62,570.75 L 512.98 576.00 L 510.24 575.93 C508.73,575.89 496.92,573.46 484.00,570.54 ZM 772.00 574.62 C772.00,574.39 773.74,571.34 775.86,567.85 C785.15,552.56 790.30,539.29 793.97,521.22 C801.02,486.42 794.20,447.55 775.71,417.25 C771.97,411.11 770.56,408.00 771.52,408.00 C776.01,408.00 811.11,413.70 829.78,417.46 C884.62,428.51 937.20,444.68 981.08,464.00 C996.60,470.82 1016.00,480.33 1016.00,481.10 C1016.00,481.49 1010.49,485.17 1003.75,489.27 C942.70,526.39 866.33,555.75 791.00,571.07 C783.03,572.69 775.49,574.24 774.25,574.53 C773.01,574.81 772.00,574.85 772.00,574.62 ZM 573.42 455.64 C568.60,453.45 562.86,447.90 560.86,443.51 C554.12,428.65 565.11,413.00 582.30,413.00 C588.25,413.00 591.03,414.13 595.89,418.52 C606.51,428.11 605.08,445.62 593.02,453.60 C588.17,456.82 578.26,457.85 573.42,455.64 Z" fill="rgb(253,253,251)"/>
</g>
</svg>